<svg id="svg" version="1.1" xmlns="http://www.w3.org/2000/svg" width="400" height="400"><g id="svgg"><path id="path0" d="M90.411 91.938c-3.336 1.79-2.998-6.576-3.114 76.901-.117 83.566-.41 75.906 2.991 78.021l1.512.94h50.4l9-3.67c11.584-4.724 20.914-8.871 21.291-9.464.163-.256.3-2.143.303-4.192l.006-3.726-2.062-3.374c-1.134-1.856-2.079-3.416-2.1-3.468-.021-.052-15.518-.187-34.438-.3l-34.4-.206-.11-55.4c-.06-30.47-.011-55.805.108-56.3l.217-.9h99.75c90.589 0 99.772.058 99.992.633.318.827.318 110.707 0 111.534-.219.57-3.566.633-33.767.633-37.718 0-34.362-.255-36.054 2.74-.702 1.243-1.604 2.689-2.006 3.214-.763.998-1.09 8.061-.421 9.112.378.595 9.749 4.761 21.291 9.466l9 3.668H283c28.653 0 26.966.199 29-3.42l1-1.78v-73.4c0-82.257.267-74.725-2.729-76.958l-1.13-.842-108.673-.102c-105.222-.099-108.716-.079-110.057.64m27.391 38.86-1.56 1.598 4.279 4.342c2.353 2.388 4.279 4.479 4.279 4.646 0 .167-1.921 2.276-4.269 4.686l-4.268 4.382 1.869 1.869L120 154.19l6.2-6.19c3.41-3.405 6.2-6.375 6.2-6.6 0-.662-11.75-12.2-12.424-12.2-.337 0-1.316.719-2.174 1.598m22.465 5.469c-.59.589-.284 4.841.366 5.09 1.249.48 14.78.27 15.287-.237.502-.502.655-3.398.237-4.487-.253-.659-15.252-1.004-15.89-.366m55.933 5.796c-11.503 1.286-20.774 7.351-25.357 16.586-2.759 5.562-3.108 11.146-1.442 23.061.196 1.396.105 1.572-1.212 2.349-2.275 1.343-3.776 5.476-3.786 10.426-.008 3.764 3.521 9.2 6.338 9.763 1.397.28 2.059 1.142 2.059 2.681 0 3.287 3.27 11.517 5.988 15.071l1.683 2.2-.271 7.4c-.327 8.934.499 7.806-8.8 12.02-13.278 6.017-16.719 7.224-25.095 8.803-18.357 3.458-31.981 8.632-39.816 15.121-3.341 2.767-4.089 5.554-4.089 15.233 0 7.877 1.665 24.91 2.58 26.39.416.674 189.181.608 189.726-.067.222-.275.699-2.57 1.06-5.1 2.387-16.756 2.523-29.093.368-33.314-2.381-4.662-18.849-11.782-36.69-15.862-9.428-2.155-16.537-4.744-31.044-11.302-9.125-4.126-8.312-2.962-8.469-12.122l-.131-7.6 1.526-1.965c2.681-3.451 4.494-7.802 5.667-13.601.772-3.813.784-3.834 2.104-3.834 5.64 0 8.819-16.004 3.871-19.491-2.745-1.935-2.59-1.438-1.962-6.309 2.176-16.865-2.417-26.666-15.606-33.301-3.821-1.922-12.754-4.01-15.6-3.646-.22.029-1.84.213-3.6.41" stroke="none" fill="#969696" fill-rule="evenodd"/></g></svg>