<svg xml:space="preserve" viewBox="0 0 100 100" xmlns="http://www.w3.org/2000/svg"><g class="ldl-scale" style="transform-origin:50%;transform:rotate(0deg)"><g class="ldl-ani"><g class="ldl-layer"><path d="M34.615 40.553h30.769v18.894H34.615z" fill="#C2C0C0" class="ldl-ani" style="transform-origin:50px 50px;opacity:1;animation:blink-7a832e4a-903c-4821-bef4-ee0a7dae37d8 1.11111s linear -.694444s infinite forwards"/></g><g class="ldl-layer"><path d="M34.615 15.83h30.769v18.893H34.615z" fill="#C2C0C0" class="ldl-ani" style="transform-origin:50px 50px;opacity:1;animation:blink-7a832e4a-903c-4821-bef4-ee0a7dae37d8 1.11111s linear -.833333s infinite forwards"/></g><g class="ldl-layer"><path d="M34.615 65.277h30.769V84.17H34.615z" fill="#C2C0C0" class="ldl-ani" style="transform-origin:50px 50px;opacity:1;animation:blink-7a832e4a-903c-4821-bef4-ee0a7dae37d8 1.11111s linear -.972222s infinite forwards"/></g><g class="ldl-layer"><path fill="#818181" d="M82.817 10.049c-1.407.254-2.371 1.578-2.371 3.008v3.703a2.388 2.388 0 0 1-2.388 2.388h-4.454a2.388 2.388 0 0 1-2.388-2.388v-3.846a2.915 2.915 0 0 0-2.915-2.915H31.7c-.126 0-.246.022-.367.037a2.905 2.905 0 0 0-2.548 2.878v3.846a2.388 2.388 0 0 1-2.388 2.388h-4.454a2.388 2.388 0 0 1-2.388-2.388v-3.703c0-1.43-.964-2.754-2.371-3.008a2.917 2.917 0 0 0-3.459 2.866v74.028c0 1.43.964 2.754 2.371 3.008a2.918 2.918 0 0 0 3.459-2.866v-3.846a2.388 2.388 0 0 1 2.388-2.388h4.454a2.388 2.388 0 0 1 2.388 2.388v3.846a2.905 2.905 0 0 0 2.548 2.878c.122.015.242.037.367.037h36.6a2.915 2.915 0 0 0 2.915-2.915v-3.846a2.388 2.388 0 0 1 2.388-2.388h4.454a2.388 2.388 0 0 1 2.388 2.388v3.703c0 1.43.964 2.754 2.371 3.008a2.918 2.918 0 0 0 3.459-2.866v-74.17a2.917 2.917 0 0 0-3.458-2.865zM28.785 72.633a2.388 2.388 0 0 1-2.388 2.388h-4.454a2.388 2.388 0 0 1-2.388-2.388v-3.362a2.388 2.388 0 0 1 2.388-2.388h4.454a2.388 2.388 0 0 1 2.388 2.388v3.362zm0-13.969a2.388 2.388 0 0 1-2.388 2.388h-4.454a2.388 2.388 0 0 1-2.388-2.388v-3.361a2.388 2.388 0 0 1 2.388-2.388h4.454a2.388 2.388 0 0 1 2.388 2.388v3.361zm0-13.967a2.388 2.388 0 0 1-2.388 2.388h-4.454a2.388 2.388 0 0 1-2.388-2.388v-3.361a2.388 2.388 0 0 1 2.388-2.388h4.454a2.388 2.388 0 0 1 2.388 2.388v3.361zm0-13.968a2.388 2.388 0 0 1-2.388 2.388h-4.454a2.388 2.388 0 0 1-2.388-2.388v-3.362a2.388 2.388 0 0 1 2.388-2.388h4.454a2.388 2.388 0 0 1 2.388 2.388v3.362zm36.6 53.441h-30.77V65.277h30.769V84.17zm0-24.723h-30.77V40.553h30.769v18.894zm0-24.724h-30.77V15.83h30.769v18.893zm15.06 37.91a2.388 2.388 0 0 1-2.388 2.388h-4.454a2.388 2.388 0 0 1-2.388-2.388v-3.362a2.388 2.388 0 0 1 2.388-2.388h4.454a2.388 2.388 0 0 1 2.388 2.388v3.362zm0-13.969a2.388 2.388 0 0 1-2.388 2.388h-4.454a2.388 2.388 0 0 1-2.388-2.388v-3.361a2.388 2.388 0 0 1 2.388-2.388h4.454a2.388 2.388 0 0 1 2.388 2.388v3.361zm0-13.967a2.388 2.388 0 0 1-2.388 2.388h-4.454a2.388 2.388 0 0 1-2.388-2.388v-3.361a2.388 2.388 0 0 1 2.388-2.388h4.454a2.388 2.388 0 0 1 2.388 2.388v3.361zm0-13.968a2.388 2.388 0 0 1-2.388 2.388h-4.454a2.388 2.388 0 0 1-2.388-2.388v-3.362a2.388 2.388 0 0 1 2.388-2.388h4.454a2.388 2.388 0 0 1 2.388 2.388v3.362z" class="ldl-ani" style="transform-origin:50px 50px;opacity:1;animation:blink-7a832e4a-903c-4821-bef4-ee0a7dae37d8 1.11111s linear -1.11111s infinite forwards"/></g></g></g></svg>