<svg xmlns="http://www.w3.org/2000/svg" width="355" viewBox="0 0 266.25 345" height="460" version="1.0"><defs><clipPath id="a"><path d="M0 .484h265.504v344.032H0Zm0 0"/></clipPath><clipPath id="b"><path d="M71.742 35.102h121.91v107.695H71.742Zm0 0"/></clipPath></defs><g clip-path="url(#a)" fill="#fff"><path d="M0 .484h266.25v351.512H0Zm0 0"/><path d="M0 .484h265.504v344.032H0Zm0 0"/><path d="M0 .484h265.504v344.032H0Zm0 0"/><path d="M0 .484h265.504v344.032H0Zm0 0"/></g><g clip-path="url(#b)"><path transform="matrix(.19005 0 0 .1908 71.65 58.31)" fill="#ff6b08" d="M220.663-117.876v449.998s-.638-.102-1.87-.287a85.183 85.183 0 0 1-1.871-.245c-.576-.062-1.213-.144-1.891-.226-.576-.081-1.213-.163-1.87-.245-.597-.082-1.234-.144-1.892-.225-.596-.062-1.233-.123-1.89-.205-.597-.062-1.234-.123-1.871-.205a54.165 54.165 0 0 0-1.89-.164l-1.892-.184c-.617-.061-1.254-.102-1.89-.164-.618-.061-1.255-.102-1.892-.143-.616-.041-1.254-.102-1.89-.143l-1.892-.123c-.616-.062-1.254-.082-1.89-.123a61.833 61.833 0 0 1-1.892-.102c-.637-.02-1.254-.062-1.89-.082a57.194 57.194 0 0 0-1.912-.082l-1.891-.062c-.617-.02-1.254-.061-1.891-.061-.617-.02-1.254-.02-1.891-.041-.637 0-1.254-.02-1.891-.02-.637-.021-1.275-.021-1.912-.021h-3.782c-.637 0-1.253 0-1.89.02-.638 0-1.275.021-1.912.021-.617.02-1.254.04-1.891.04l-1.891.062-1.891.062c-.637.02-1.254.061-1.891.082-.637.02-1.274.061-1.891.082-.637.04-1.274.081-1.912.102a55.46 55.46 0 0 1-1.89.102c-.617.041-1.254.103-1.892.144-.616.04-1.253.082-1.89.143-.617.04-1.254.082-1.891.143-.617.041-1.254.103-1.87.164-.638.061-1.275.102-1.892.164-.637.061-1.274.123-1.89.184-.638.082-1.255.143-1.892.225-.616.062-1.254.144-1.87.205-.637.082-1.254.164-1.891.225-.637.082-1.254.144-1.891.225-.617.062-1.254.144-1.87.205-.638.082-1.254.184-1.892.266l-1.87.287c-.617.102-1.254.184-1.87.287a58.98 58.98 0 0 0-1.87.286c-.638.082-1.255.185-1.871.266-.637.103-1.254.185-1.891.308-.617.102-1.234.225-1.85.327l-1.87.348c-.617.123-1.254.225-1.871.348-.617.103-1.233.225-1.87.328l-1.85.348c-.617.102-1.234.246-1.87.389l-1.85.389-1.85.41c-.617.122-1.234.245-1.85.388-.617.123-1.234.267-1.85.39-.617.143-1.233.266-1.85.43-.617.143-1.233.286-1.85.45-.617.143-1.213.286-1.83.45-.616.144-1.232.287-1.85.45-.616.144-1.232.308-1.828.451-.617.143-1.234.307-1.85.45-.617.144-1.213.328-1.83.492l-1.829.512c-.617.164-1.213.327-1.83.491a61.01 61.01 0 0 1-1.829.512c-.616.164-1.212.328-1.829.512-.616.164-1.213.327-1.809.512-.616.184-1.212.368-1.829.552-.596.185-1.213.369-1.809.553l-1.808.553c-.617.184-1.213.369-1.83.553-.596.184-1.212.348-1.809.553-.596.204-1.192.389-1.788.593l-1.808.594c-.597.205-1.193.41-1.789.594-.616.205-1.212.41-1.808.594-.597.204-1.193.41-1.81.593-.595.205-1.191.43-1.787.635-.596.205-1.193.43-1.789.635-.596.204-1.192.43-1.767.634-.596.205-1.192.43-1.788.635-.597.225-1.193.43-1.789.635-.596.225-1.192.43-1.788.655-.596.225-1.171.45-1.768.676-.596.225-1.192.45-1.767.675-.596.225-1.192.45-1.768.676l-1.788.676c-.576.225-1.172.43-1.768.675-.575.225-1.171.471-1.747.696-.596.246-1.192.471-1.767.717-.597.246-1.172.47-1.748.716-.596.226-1.192.471-1.767.697-.596.245-1.172.47-1.768.716-.575.225-1.171.471-1.747.717-.575.266-1.172.512-1.747.757l-1.727.737c-.596.246-1.171.492-1.747.737l-1.747.738c-.596.245-1.171.49-1.747.757-.596.246-1.171.512-1.726.758-.596.266-1.172.511-1.748.778l-1.726.757c-.596.266-1.172.532-1.727.778-.596.266-1.171.512-1.747.758l-1.726.798c-.576.266-1.151.532-1.706.799-.596.266-1.172.532-1.727.798-.596.266-1.171.532-1.726.799-.596.266-1.172.532-1.727.778-.596.286-1.171.552-1.706.819-.596.286-1.171.552-1.706.819-.616.286-1.192.552-1.726.798-.617.307-1.193.573-1.706.819l-1.706.819c-1.13.532-1.706.819-1.706.819V-73.734l1.706-.819c.472-.225 1.048-.491 1.706-.819.513-.245 1.089-.511 1.706-.819.534-.245 1.11-.511 1.726-.819.535-.245 1.11-.511 1.706-.798.535-.266 1.11-.532 1.706-.819a60.56 60.56 0 0 0 1.727-.798c.555-.246 1.13-.512 1.726-.779.555-.266 1.13-.532 1.727-.798l1.706-.798 1.726-.799c.576-.246 1.151-.491 1.747-.757.555-.246 1.13-.512 1.727-.779.575-.245 1.151-.511 1.726-.757.576-.266 1.152-.512 1.727-.778l1.747-.758a44.836 44.836 0 0 1 1.747-.757c.576-.246 1.151-.492 1.747-.737l1.727-.737 1.747-.758c.575-.225 1.172-.491 1.747-.737a62.751 62.751 0 0 1 1.747-.716c.596-.246 1.172-.471 1.768-.717.575-.225 1.171-.47 1.767-.717.576-.225 1.151-.47 1.748-.696l1.767-.716c.576-.226 1.151-.471 1.747-.696.576-.246 1.172-.45 1.768-.676l1.788-.676c.576-.225 1.172-.45 1.768-.675.575-.226 1.171-.45 1.767-.676.597-.225 1.172-.45 1.768-.676.596-.225 1.192-.43 1.788-.655.596-.205 1.192-.43 1.789-.635.596-.204 1.192-.43 1.788-.634.575-.205 1.171-.43 1.767-.635.596-.205 1.193-.43 1.789-.635.596-.204 1.192-.43 1.788-.634a46.71 46.71 0 0 0 1.809-.594c.596-.184 1.192-.389 1.808-.594l1.789-.594c.596-.204 1.212-.389 1.808-.593.596-.205 1.192-.39 1.788-.594.617-.205 1.213-.369 1.83-.553l1.809-.553c.596-.184 1.212-.368 1.808-.552.596-.185 1.213-.369 1.81-.553.616-.184 1.212-.369 1.828-.553.596-.184 1.193-.348 1.81-.532.616-.164 1.212-.328 1.828-.492a61.006 61.006 0 0 0 1.83-.512c.616-.163 1.212-.327 1.83-.49.616-.165 1.212-.349 1.828-.513.617-.164 1.213-.348 1.83-.491l1.829-.45a60.743 60.743 0 0 1 1.85-.451l1.85-.45a47.719 47.719 0 0 1 1.83-.45 60.744 60.744 0 0 1 1.849-.451c.617-.164 1.233-.287 1.85-.43.616-.123 1.233-.266 1.85-.39l1.85-.409 1.85-.389c.616-.123 1.233-.266 1.85-.389.616-.143 1.233-.286 1.87-.389.616-.123 1.233-.225 1.85-.348l1.87-.327a59.945 59.945 0 0 1 1.87-.348c.617-.123 1.234-.226 1.87-.349.617-.102 1.234-.225 1.85-.327.638-.123 1.255-.205 1.892-.307.616-.082 1.233-.184 1.87-.287.617-.082 1.254-.184 1.87-.266.617-.102 1.254-.184 1.871-.287.637-.102 1.254-.184 1.87-.286.638-.082 1.254-.185 1.891-.266.617-.062 1.254-.144 1.87-.205.638-.082 1.275-.143 1.892-.225.637-.082 1.254-.144 1.89-.226.617-.061 1.255-.143 1.871-.204.637-.082 1.254-.144 1.891-.226a603.84 603.84 0 0 1 1.891-.184 54.165 54.165 0 0 1 1.891-.164c.617-.061 1.254-.122 1.87-.184.638-.04 1.275-.082 1.891-.123.638-.061 1.275-.102 1.891-.143.638-.041 1.275-.102 1.891-.143a55.46 55.46 0 0 0 1.891-.103c.638-.02 1.275-.061 1.891-.102.638-.041 1.275-.062 1.912-.082.617-.04 1.254-.061 1.89-.082l1.892-.061 1.89-.062c.638-.02 1.275-.02 1.892-.04.637 0 1.274-.021 1.911-.042h3.782c.637 0 1.275-.02 1.891-.02.637 0 1.275.02 1.912.04.637 0 1.254.021 1.89.021.638.02 1.275.02 1.892.041.637 0 1.274.041 1.89.062.638.02 1.275.04 1.892.061l1.911.062c.637.04 1.254.081 1.891.102.637.04 1.275.082 1.891.102.637.041 1.275.062 1.891.103.637.061 1.275.102 1.891.143.637.04 1.275.102 1.891.143.637.041 1.274.082 1.891.144.637.061 1.274.102 1.891.163.637.062 1.274.123 1.891.164l1.891.184c.637.082 1.274.144 1.87.205.658.082 1.295.144 1.891.205.658.082 1.295.143 1.891.225.658.082 1.295.164 1.87.225.7.103 1.316.185 1.892.246.72.102 1.356.184 1.87.246 1.233.184 1.87.286 1.87.286M426.41-25.825v449.998s-.617-.246-1.726-.798c-.473-.226-1.049-.492-1.727-.799-.514-.246-1.069-.532-1.706-.819-.534-.246-1.11-.532-1.706-.819-.534-.246-1.11-.553-1.706-.84a42.57 42.57 0 0 0-1.685-.86 43.978 43.978 0 0 1-1.686-.86 44.538 44.538 0 0 1-1.706-.859c-.534-.287-1.09-.573-1.665-.88-.555-.287-1.11-.594-1.685-.88-.535-.308-1.09-.595-1.665-.902-.555-.286-1.11-.573-1.665-.9-.555-.308-1.09-.615-1.665-.922-.534-.307-1.09-.614-1.644-.921l-1.665-.921c-.534-.308-1.09-.615-1.644-.942-.535-.307-1.09-.635-1.645-.963-.534-.307-1.089-.634-1.623-.941-.555-.328-1.09-.635-1.645-.963-.534-.327-1.09-.634-1.644-.962-.534-.307-1.069-.655-1.603-.983-.535-.327-1.09-.655-1.624-.982-.534-.328-1.069-.676-1.624-1.004-.534-.327-1.069-.655-1.624-.982-.534-.328-1.068-.676-1.603-1.004-.514-.348-1.048-.675-1.582-1.023-.535-.328-1.07-.676-1.604-1.024-.534-.328-1.069-.676-1.603-1.003-.534-.348-1.069-.676-1.603-1.024-.514-.348-1.048-.696-1.583-1.044-.514-.348-1.048-.696-1.582-1.044-.514-.348-1.049-.696-1.583-1.044-.514-.349-1.048-.697-1.583-1.045-.514-.348-1.048-.716-1.562-1.064-.514-.348-1.048-.717-1.562-1.065-.534-.368-1.048-.717-1.562-1.085-.535-.348-1.048-.717-1.583-1.065-.514-.348-1.027-.716-1.562-1.064a70.757 70.757 0 0 0-1.541-1.085l-1.542-1.106c-.534-.369-1.048-.737-1.562-1.085l-1.542-1.106a70.755 70.755 0 0 0-1.541-1.085c-.514-.368-1.028-.737-1.542-1.126l-1.541-1.106c-.494-.368-1.008-.757-1.521-1.126-.514-.368-1.028-.737-1.542-1.126a97.512 97.512 0 0 0-1.52-1.105 13.085 13.085 0 0 0-1.604-1.004c-.555-.286-1.13-.593-1.686-.88a65.329 65.329 0 0 0-1.664-.88c-.576-.307-1.13-.594-1.686-.901a127.75 127.75 0 0 0-1.685-.86c-.555-.287-1.13-.573-1.686-.86l-1.685-.86c-.576-.286-1.13-.573-1.686-.86-.575-.286-1.13-.573-1.706-.84-.575-.286-1.13-.552-1.706-.839l-1.706-.84c-.555-.265-1.13-.552-1.685-.818-.576-.287-1.151-.553-1.727-.819a64.679 64.679 0 0 1-1.706-.819l-1.726-.798c-.555-.267-1.13-.533-1.706-.82-.576-.266-1.151-.511-1.727-.777a64.044 64.044 0 0 1-1.726-.778l-1.727-.778a64.044 64.044 0 0 0-1.726-.778 44.837 44.837 0 0 1-1.747-.758c-.576-.246-1.172-.491-1.747-.757l-1.727-.738a40.301 40.301 0 0 0-1.747-.737c-.596-.245-1.172-.491-1.768-.737-.575-.245-1.15-.47-1.747-.716-.575-.246-1.171-.492-1.747-.737-.575-.246-1.172-.471-1.768-.696-.575-.226-1.171-.471-1.767-.697-.576-.225-1.172-.47-1.747-.696-.596-.225-1.192-.47-1.768-.675l-1.788-.676c-.576-.225-1.172-.45-1.768-.676-.596-.225-1.192-.43-1.768-.655-.596-.225-1.192-.43-1.788-.655-.596-.205-1.192-.41-1.788-.635-.596-.204-1.192-.43-1.788-.634-.596-.205-1.192-.43-1.788-.615l-1.789-.614c-.596-.205-1.212-.41-1.808-.614a60.904 60.904 0 0 0-1.789-.594c-.596-.204-1.212-.389-1.808-.593-.596-.185-1.192-.369-1.809-.574-.596-.184-1.192-.389-1.809-.573-.596-.184-1.192-.369-1.809-.553-.596-.184-1.212-.368-1.808-.553-.617-.184-1.213-.368-1.81-.532-.616-.184-1.212-.368-1.828-.553a61.01 61.01 0 0 1-1.83-.512c-.596-.163-1.212-.327-1.808-.511-.617-.164-1.234-.328-1.83-.512-.616-.164-1.233-.328-1.83-.471l-1.849-.492c-.617-.163-1.233-.307-1.83-.47-.616-.164-1.233-.308-1.829-.45-.637-.165-1.253-.308-1.85-.451a60.744 60.744 0 0 0-1.85-.45c-.616-.144-1.233-.308-1.85-.43a59.862 59.862 0 0 0-1.85-.41l-1.849-.43c-.617-.123-1.233-.266-1.85-.39-.637-.142-1.254-.265-1.85-.388-.637-.123-1.253-.246-1.87-.369-.637-.143-1.254-.266-1.85-.389-.637-.123-1.254-.225-1.87-.348a42.6 42.6 0 0 1-1.85-.348c-.658-.102-1.275-.225-1.87-.327-.658-.123-1.275-.226-1.871-.328a89.812 89.812 0 0 1-1.87-.307 59.8 59.8 0 0 1-1.87-.307c-.72-.123-1.358-.205-1.871-.287-1.234-.164-1.891-.266-1.891-.266v-449.998s.657.082 1.89.267c.514.081 1.152.163 1.871.286.555.103 1.192.205 1.87.307.576.103 1.213.205 1.87.307.597.103 1.214.205 1.871.328.596.102 1.213.225 1.87.328.597.122 1.213.225 1.85.348.617.122 1.234.225 1.871.348a147.6 147.6 0 0 0 1.85.368c.617.123 1.233.266 1.87.39.596.122 1.213.245 1.85.388.617.123 1.233.246 1.85.39.617.143 1.233.286 1.85.409l1.85.43c.616.122 1.233.266 1.85.43.616.143 1.212.286 1.85.45l1.829.43c.616.164 1.233.307 1.85.47l1.829.472c.617.164 1.213.327 1.83.491.616.143 1.233.307 1.85.471l1.808.512c.617.164 1.213.348 1.83.512.616.164 1.212.348 1.829.512.596.184 1.212.368 1.829.552.596.164 1.192.348 1.809.533.596.184 1.212.368 1.808.553.597.163 1.213.368 1.81.552.595.185 1.212.39 1.808.574.596.184 1.213.389 1.809.573.596.205 1.212.389 1.808.573l1.789.614c.596.205 1.192.41 1.808.615.597.204 1.193.389 1.789.593.596.205 1.192.43 1.788.635.596.205 1.192.43 1.788.635.596.204 1.192.43 1.788.634.596.226 1.192.43 1.788.656.576.204 1.172.43 1.768.655.596.225 1.192.45 1.768.675.596.226 1.192.45 1.788.656.576.225 1.172.47 1.768.696l1.767.696 1.747.696c.596.225 1.193.45 1.768.696.576.246 1.172.491 1.747.737.596.225 1.172.471 1.747.717.596.245 1.172.491 1.768.716.575.246 1.15.492 1.747.758l1.727.737c.575.266 1.171.512 1.747.757.575.246 1.15.512 1.747.758.575.246 1.15.512 1.726.778.576.266 1.151.512 1.727.778.575.266 1.15.512 1.726.778.576.266 1.151.512 1.727.778.575.266 1.13.553 1.706.819l1.726.798c.555.267 1.13.533 1.706.82.576.266 1.151.532 1.706.798.576.287 1.151.573 1.706.84l3.412 1.678c.555.266 1.13.553 1.686.84.575.286 1.13.573 1.706.86.555.286 1.11.573 1.685.86.555.286 1.13.573 1.686.86.575.286 1.13.573 1.685.86.555.306 1.11.593 1.686.9.555.287 1.11.573 1.664.88.555.287 1.13.594 1.686.88.555.287 1.09.636 1.603 1.004.514.369 1.028.737 1.521 1.106.514.389 1.028.757 1.542 1.126.513.368 1.027.737 1.52 1.126l1.542 1.105c.514.369 1.028.758 1.542 1.106l1.541 1.106c.514.368 1.028.737 1.542 1.085.514.368 1.048.737 1.562 1.105.514.369 1.028.737 1.542 1.085l1.541 1.106c.535.348 1.048.696 1.562 1.065.535.348 1.048.716 1.583 1.064a41.81 41.81 0 0 0 1.562 1.065c.514.368 1.048.717 1.562 1.085.514.348 1.048.717 1.562 1.044.535.369 1.069.717 1.583 1.044.534.369 1.069.717 1.583 1.065.534.348 1.068.696 1.582 1.044.535.348 1.069.696 1.583 1.044.534.348 1.069.676 1.603 1.004.534.348 1.069.696 1.603 1.023.535.348 1.07.676 1.583 1.024.555.348 1.09.676 1.603 1.024.535.327 1.069.675 1.603 1.003.555.328 1.09.655 1.624.983.555.327 1.09.655 1.624.982.534.349 1.09.676 1.624 1.004l1.603.982 1.644.963c.555.307 1.09.634 1.645.942.534.327 1.089.655 1.623.962.555.327 1.11.655 1.645.962.555.328 1.11.635 1.644.942l1.665.921c.555.307 1.11.614 1.644.922l1.665.92c.555.308 1.11.615 1.665.902.576.307 1.13.593 1.665.88.575.307 1.13.614 1.685.901.576.307 1.13.594 1.665.88.576.307 1.151.594 1.706.86.576.307 1.13.574 1.686.86.596.287 1.15.573 1.685.86.596.287 1.172.573 1.706.84.596.286 1.172.552 1.706.818.637.287 1.192.574 1.727.82.657.307 1.233.573 1.706.798 1.11.532 1.726.798 1.726.798m214.81-31.898v449.998s-.616.163-1.828.47c-.514.123-1.13.287-1.83.471-.555.123-1.171.307-1.829.492-.576.164-1.192.348-1.83.532-.575.143-1.17.348-1.808.553-.576.164-1.192.348-1.809.553-.596.184-1.192.389-1.809.593-.575.205-1.171.41-1.788.615-.596.184-1.192.41-1.788.634-.576.205-1.172.43-1.788.655-.576.205-1.172.43-1.768.656l-1.768.696c-.575.225-1.171.47-1.747.716-.575.246-1.171.492-1.747.737-.575.246-1.171.492-1.747.737-.575.246-1.171.492-1.747.738-.575.245-1.151.511-1.747.778-.555.245-1.13.511-1.727.778-.555.266-1.13.532-1.726.798l-1.706.778c-.576.266-1.151.553-1.727.819-.555.287-1.13.553-1.685.84-.576.266-1.151.552-1.706.818l-1.706.84c-.576.266-1.13.553-1.706.84l-1.685.88c-.555.286-1.11.573-1.686.86-.555.286-1.13.573-1.685.86-.555.286-1.13.573-1.686.86-.555.286-1.13.573-1.685.86-.576.286-1.13.573-1.686.88l-1.706.86c-.555.286-1.11.573-1.685.86-.555.286-1.11.573-1.686.86-.554.286-1.13.573-1.685.86-.555.286-1.13.573-1.685.86-.555.286-1.13.572-1.686.86-.575.286-1.13.572-1.706.859-.555.287-1.11.573-1.685.86-.555.287-1.11.573-1.686.86-.555.286-1.13.573-1.706.86-.555.266-1.13.532-1.706.819-.555.266-1.13.553-1.706.819-.555.286-1.13.552-1.706.819-.555.286-1.13.552-1.706.819-.575.245-1.15.511-1.726.778-.576.266-1.151.511-1.727.778-.575.266-1.15.532-1.726.778-.576.266-1.151.511-1.747.757-.576.246-1.172.492-1.747.737l-1.748.717c-.596.246-1.171.491-1.747.737-.596.225-1.171.47-1.767.696-.596.225-1.192.45-1.768.676-.596.225-1.192.45-1.788.655-.596.205-1.192.43-1.788.635-.596.204-1.193.43-1.789.614-.596.204-1.192.389-1.788.593-.616.205-1.212.39-1.809.574-.616.184-1.212.368-1.829.553-.596.184-1.192.368-1.809.532-.616.164-1.212.327-1.829.491-.617.164-1.213.348-1.83.492-.616.143-1.233.307-1.85.45-.616.143-1.212.307-1.849.43-.617.143-1.233.266-1.85.41-.616.122-1.233.245-1.85.388-.616.123-1.254.226-1.87.328-.617.102-1.233.225-1.87.328-.617.122-1.254.204-1.871.286-.617.103-1.254.185-1.87.266-.638.103-1.254.164-1.891.246-.617.062-1.254.143-1.87.205-.638.082-1.275.143-1.892.184-.637.062-1.274.103-1.89.143-.638.062-1.255.123-1.892.144-.637.02-1.274.061-1.89.082-.638.02-1.275.061-1.892.082-.637.04-1.274.02-1.911.02-.617.02-1.254.02-1.891.02-.637.021-1.254 0-1.891-.02s-1.275-.02-1.891-.04c-.637-.021-1.275-.021-1.891-.062a59.749 59.749 0 0 0-1.912-.103l-1.89-.123a64.479 64.479 0 0 1-1.892-.163 57.618 57.618 0 0 0-1.87-.164 53.437 53.437 0 0 1-1.891-.205l-1.891-.246c-.617-.081-1.254-.143-1.87-.225a51.115 51.115 0 0 1-1.87-.286c-.638-.103-1.255-.205-1.871-.308-.637-.102-1.254-.184-1.87-.307l-1.871-.368-1.85-.369a50.212 50.212 0 0 1-1.87-.389c-.617-.123-1.234-.266-1.85-.41l-1.83-.43a48.812 48.812 0 0 1-1.85-.45c-.616-.163-1.233-.327-1.829-.49a47.671 47.671 0 0 1-1.83-.472c-.616-.164-1.232-.348-1.828-.512-.617-.184-1.213-.368-1.83-.532-.596-.184-1.212-.369-1.808-.553-.617-.164-1.213-.368-1.81-.573-.616-.184-1.212-.39-1.808-.573a91.345 91.345 0 0 0-1.788-.594 46.888 46.888 0 0 1-1.809-.635c-.596-.205-1.192-.41-1.768-.634-.616-.205-1.212-.43-1.788-.635a36.235 36.235 0 0 1-1.788-.655c-.596-.246-1.192-.471-1.768-.696-.596-.226-1.192-.45-1.767-.676-.596-.246-1.192-.471-1.747-.696a55.623 55.623 0 0 0-1.768-.737c-.596-.266-1.192-.492-1.747-.737-.617-.246-1.192-.492-1.747-.717-.637-.266-1.213-.553-1.727-.778-.678-.307-1.254-.553-1.726-.778-1.13-.512-1.747-.778-1.747-.778V-25.825l1.747.778c.472.205 1.048.471 1.726.778.514.226 1.09.492 1.727.758.555.246 1.13.47 1.747.737.555.225 1.15.47 1.747.737.575.225 1.151.471 1.747.717.576.245 1.172.47 1.768.716.575.225 1.171.45 1.767.676.576.225 1.172.45 1.768.696.576.205 1.172.45 1.788.655.576.205 1.172.43 1.788.635.576.205 1.172.43 1.768.635.596.204 1.192.43 1.788.634l1.809.574c.596.204 1.192.389 1.809.593.596.185 1.192.41 1.809.574.596.184 1.192.368 1.808.532l1.83.532c.596.184 1.192.369 1.829.533.596.163 1.213.307 1.83.47.595.164 1.212.328 1.829.492.596.143 1.212.307 1.829.45l1.85.43 1.85.41c.616.143 1.233.266 1.87.389l1.85.368c.617.123 1.233.246 1.87.369.617.123 1.234.204 1.87.307l1.871.307c.617.082 1.233.205 1.87.287.617.061 1.254.143 1.871.225.637.082 1.254.164 1.891.245.617.082 1.254.144 1.891.185l1.87.184c.638.061 1.254.123 1.891.164.638.04 1.275.082 1.891.102l1.891.123c.637.041 1.275.041 1.912.061.616.02 1.254.02 1.89.041.638.02 1.255.02 1.892.02s1.254 0 1.89-.02c.638 0 1.275 0 1.912-.02.617-.02 1.254-.062 1.891-.082.617-.02 1.254-.061 1.891-.082.637-.04 1.254-.082 1.891-.143.617-.041 1.254-.103 1.891-.144.617-.04 1.254-.122 1.891-.184.617-.061 1.254-.143 1.87-.205.638-.081 1.254-.143 1.892-.245.616-.082 1.253-.184 1.87-.266.617-.082 1.254-.164 1.87-.287.617-.102 1.254-.225 1.87-.328.617-.122 1.255-.204 1.871-.327l1.85-.41 1.85-.389c.617-.122 1.233-.286 1.85-.43.616-.143 1.233-.307 1.85-.45.596-.143 1.212-.328 1.83-.491.595-.164 1.212-.328 1.828-.492a60.335 60.335 0 0 0 1.81-.532c.616-.184 1.212-.369 1.828-.553.597-.184 1.193-.368 1.789-.573l1.808-.594 1.789-.614c.596-.205 1.192-.43 1.788-.635a62.89 62.89 0 0 0 1.788-.655l1.768-.676a44.45 44.45 0 0 0 1.747-.716c.596-.225 1.171-.471 1.767-.717a62.752 62.752 0 0 1 1.748-.716c.575-.246 1.171-.492 1.747-.737a44.839 44.839 0 0 0 1.747-.758c.575-.246 1.15-.512 1.726-.778.576-.266 1.151-.512 1.727-.778a64.04 64.04 0 0 1 1.726-.778 43.646 43.646 0 0 0 1.706-.819c.576-.266 1.151-.553 1.706-.819.576-.266 1.151-.553 1.706-.819.576-.287 1.151-.553 1.706-.84a43.911 43.911 0 0 0 1.706-.839c.576-.286 1.13-.573 1.686-.86l1.685-.86c.576-.286 1.13-.573 1.706-.86.555-.286 1.11-.573 1.686-.86.555-.286 1.13-.573 1.685-.86.555-.286 1.13-.573 1.685-.86.576-.286 1.13-.573 1.686-.86.575-.286 1.13-.572 1.685-.859.576-.287 1.13-.594 1.686-.88.575-.287 1.13-.574 1.706-.86.555-.287 1.11-.574 1.685-.86.555-.287 1.13-.574 1.686-.86.555-.287 1.13-.573 1.685-.86.555-.287 1.13-.573 1.686-.86.575-.307 1.13-.594 1.685-.88.575-.287 1.13-.574 1.706-.84l1.685-.84c.576-.265 1.151-.552 1.706-.818l1.706-.84a65.8 65.8 0 0 1 1.727-.819c.575-.266 1.15-.532 1.706-.778a69.885 69.885 0 0 0 1.726-.798l1.727-.799c.575-.266 1.151-.511 1.727-.757.596-.246 1.171-.491 1.747-.737.596-.246 1.192-.492 1.747-.737a74.994 74.994 0 0 0 1.747-.737c.596-.246 1.192-.492 1.767-.717.597-.225 1.193-.47 1.768-.696.596-.225 1.192-.45 1.768-.676.616-.204 1.192-.43 1.788-.634.596-.226 1.192-.45 1.788-.635a89.21 89.21 0 0 0 1.788-.614c.617-.205 1.213-.41 1.81-.594.616-.205 1.212-.389 1.808-.573.617-.185 1.233-.39 1.809-.553.637-.184 1.253-.348 1.829-.512.658-.184 1.274-.368 1.83-.512.698-.164 1.315-.327 1.829-.45l1.829-.471" stroke="#1b0000" stroke-width="1.193"/></g><path transform="matrix(.19005 0 0 .1908 71.65 58.31)" fill="#fff" d="M201.835-90.031v40.006c0 .655-.062 1.31-.164 1.925-.124.634-.309 1.27-.535 1.842a9.134 9.134 0 0 1-.884 1.659 8.916 8.916 0 0 1-1.171 1.433c-.432.43-.925.819-1.439 1.146a7.634 7.634 0 0 1-1.644.799 7.255 7.255 0 0 1-1.768.47c-.596.103-1.213.124-1.85.103 0 0-.72-.04-1.89-.102-.556-.041-1.193-.041-1.892-.062a51.619 51.619 0 0 0-1.89-.081l-1.912-.062c-.617 0-1.254-.02-1.891-.02-.637-.02-1.275-.02-1.891-.041-.658-.02-1.295-.02-1.891-.02H175.32c-1.172 0-1.892.02-1.892.02-.637 0-1.253-.041-1.85-.164a7.81 7.81 0 0 1-1.788-.532 7.754 7.754 0 0 1-1.623-.88 8.062 8.062 0 0 1-1.44-1.188 9.142 9.142 0 0 1-1.191-1.474c-.33-.533-.638-1.086-.864-1.7-.246-.573-.41-1.208-.534-1.842a10.227 10.227 0 0 1-.185-1.945v-40.007c0-.675.062-1.33.185-1.965.123-.655.288-1.29.534-1.904.226-.614.535-1.208.864-1.76.349-.554.74-1.086 1.192-1.557.431-.47.904-.921 1.439-1.29a7.703 7.703 0 0 1 1.623-.962 9.224 9.224 0 0 1 1.788-.614 10.879 10.879 0 0 1 1.85-.226h1.891c.555-.02 1.192-.02 1.891-.02h1.912c.596 0 1.233.02 1.89.04.617 0 1.255.021 1.892.021.637.02 1.274.02 1.89.041.659 0 1.296.041 1.912.062.658.02 1.295.04 1.891.061.7.02 1.336.041 1.891.062 1.172.061 1.891.102 1.891.102.637.04 1.254.143 1.85.287a8.754 8.754 0 0 1 1.768.675c.596.266 1.13.635 1.644 1.024.514.41 1.007.86 1.439 1.351.432.492.822 1.044 1.171 1.597.35.573.638 1.167.884 1.802.226.614.411 1.249.535 1.924.102.635.164 1.29.164 1.966M409.431-4.245v39.986c0 .675-.061 1.29-.164 1.883a7.449 7.449 0 0 1-.473 1.618 6.43 6.43 0 0 1-.76 1.33 5.176 5.176 0 0 1-1.049.963c-.39.245-.801.43-1.253.553a5.543 5.543 0 0 1-1.44.122 7.785 7.785 0 0 1-1.561-.307 9.018 9.018 0 0 1-1.603-.716s-.658-.348-1.665-.942l-1.624-.942a89.748 89.748 0 0 0-1.644-.962c-.535-.307-1.07-.635-1.645-.962-.534-.308-1.069-.635-1.624-.963-.554-.307-1.089-.655-1.623-.982-.555-.328-1.09-.676-1.624-.983-.555-.348-1.11-.676-1.603-.983-.617-.368-1.151-.717-1.624-1.003a30.277 30.277 0 0 1-1.603-1.003 12.084 12.084 0 0 1-1.562-1.188 14.986 14.986 0 0 1-1.5-1.515c-.494-.553-.946-1.167-1.398-1.802a25.166 25.166 0 0 1-1.213-2.027 20.332 20.332 0 0 1-.987-2.15 18.458 18.458 0 0 1-.72-2.21 17.002 17.002 0 0 1-.451-2.17 14.106 14.106 0 0 1-.144-2.048v-40.006c0-.676.04-1.29.144-1.863a7.076 7.076 0 0 1 .452-1.577c.185-.47.431-.9.72-1.249.287-.348.616-.655.986-.88.37-.226.78-.369 1.213-.471a4.537 4.537 0 0 1 1.397-.041c.473.061.987.184 1.5.389.494.205 1.028.47 1.563.819 0 0 .596.389 1.603 1.003.473.287 1.007.614 1.624.983.493.307 1.048.634 1.603.983.534.327 1.069.655 1.624 1.003.534.307 1.069.655 1.623.983.555.327 1.09.634 1.645.962.555.327 1.09.635 1.624.942.575.348 1.13.675 1.644.962.596.368 1.151.676 1.624.962 1.007.594 1.665.921 1.665.921.555.308 1.089.676 1.603 1.106.555.43 1.069.9 1.562 1.433.493.533.987 1.106 1.439 1.72.452.614.863 1.27 1.253 1.925.391.675.74 1.371 1.049 2.088.288.696.555 1.413.76 2.13.206.716.37 1.432.473 2.129.103.696.164 1.371.164 2.047M623.132-22.16v39.986c0 .676-.061 1.351-.164 2.027a15.191 15.191 0 0 1-.514 2.068 19.195 19.195 0 0 1-.802 2.047c-.328.655-.698 1.31-1.11 1.925a16.8 16.8 0 0 1-1.336 1.78 17.908 17.908 0 0 1-1.52 1.536c-.514.471-1.07.901-1.645 1.27a10.42 10.42 0 0 1-1.706.9l-1.747.738c-.493.205-1.09.47-1.726.778-.535.245-1.11.512-1.727.778-.555.266-1.13.532-1.727.798-.555.266-1.13.533-1.706.799-.596.266-1.15.532-1.726.798l-3.412 1.68-1.686.818c-1.068.512-1.706.86-1.706.86a9.818 9.818 0 0 1-1.644.655 7.65 7.65 0 0 1-1.582.246 5.586 5.586 0 0 1-1.46-.184 4.142 4.142 0 0 1-1.295-.594 4.745 4.745 0 0 1-1.048-.983 6.324 6.324 0 0 1-.781-1.33c-.206-.492-.35-1.024-.473-1.618a10.894 10.894 0 0 1-.164-1.884V-6.272c0-.655.061-1.351.164-2.027.124-.696.267-1.413.473-2.13.226-.716.493-1.432.781-2.128.308-.697.678-1.393 1.048-2.048.39-.655.822-1.29 1.295-1.904a16.22 16.22 0 0 1 1.46-1.658 12.616 12.616 0 0 1 1.582-1.393c.535-.389 1.09-.737 1.644-1.023 0 0 .638-.328 1.706-.84a64.172 64.172 0 0 1 1.686-.84c.534-.265 1.11-.531 1.706-.839.555-.266 1.13-.532 1.706-.819a44.58 44.58 0 0 1 1.726-.818c.576-.267 1.151-.533 1.706-.799.597-.266 1.172-.532 1.727-.778.617-.287 1.192-.553 1.727-.798a68.649 68.649 0 0 1 1.726-.758 89.59 89.59 0 0 1 1.747-.737 8.994 8.994 0 0 1 1.706-.532 5.733 5.733 0 0 1 1.644-.123c.535.02 1.049.102 1.521.286.473.185.925.41 1.336.717.412.307.782.676 1.11 1.106.309.41.576.88.802 1.412a8.03 8.03 0 0 1 .514 1.68c.103.593.164 1.228.164 1.903M126.278-86.735v40.006c0 .656-.061 1.331-.185 1.986-.123.656-.287 1.331-.534 1.966-.226.655-.514 1.29-.863 1.884-.33.614-.72 1.187-1.151 1.74a12.22 12.22 0 0 1-1.419 1.494c-.493.45-1.048.86-1.603 1.208-.555.348-1.15.656-1.768.901a9.127 9.127 0 0 1-1.808.512s-.72.143-1.85.39c-.535.122-1.172.245-1.87.388-.576.123-1.193.266-1.85.41l-1.85.389c-.617.143-1.234.266-1.85.41-.617.122-1.254.265-1.85.409l-1.85.45-1.83.45c-.698.164-1.315.328-1.85.45-1.13.287-1.849.451-1.849.451a6.838 6.838 0 0 1-1.788.246c-.596.02-1.172 0-1.727-.082a6.613 6.613 0 0 1-1.562-.491 6.105 6.105 0 0 1-1.397-.86 7.043 7.043 0 0 1-1.131-1.208A7.587 7.587 0 0 1 90-34.731a7.782 7.782 0 0 1-.514-1.74 9.354 9.354 0 0 1-.185-1.904v-40.006c0-.676.062-1.331.185-2.007.103-.675.288-1.351.514-2.006.226-.676.514-1.331.843-1.966a15.01 15.01 0 0 1 1.13-1.822 13.923 13.923 0 0 1 2.96-2.99c.555-.388 1.13-.757 1.727-1.043a9.414 9.414 0 0 1 1.809-.614l1.829-.45c.534-.144 1.15-.288 1.85-.451.575-.144 1.192-.307 1.83-.45.595-.165 1.212-.308 1.849-.472.596-.143 1.233-.266 1.85-.41l1.85-.388 1.85-.41c.657-.143 1.274-.266 1.85-.389a80.25 80.25 0 0 0 1.87-.41l1.85-.368a7.97 7.97 0 0 1 1.829-.143 6.21 6.21 0 0 1 1.747.246c.555.143 1.11.348 1.603.614a7.7 7.7 0 0 1 1.419 1.003c.431.369.822.82 1.15 1.29.35.491.638 1.003.864 1.577.247.552.411 1.146.534 1.78.124.615.185 1.25.185 1.925M345.59-45.07v40.006c0 .655-.04 1.29-.143 1.863a7.637 7.637 0 0 1-.473 1.638 6.324 6.324 0 0 1-.781 1.31 4.216 4.216 0 0 1-1.049.963c-.39.266-.801.45-1.274.573a5.586 5.586 0 0 1-1.46.184 7.65 7.65 0 0 1-1.582-.245 8.335 8.335 0 0 1-1.644-.656s-.658-.327-1.686-.86c-.493-.245-1.068-.532-1.706-.839-.534-.266-1.11-.532-1.706-.84-.534-.266-1.11-.552-1.706-.818a64.486 64.486 0 0 0-1.685-.84 65.8 65.8 0 0 0-1.727-.819 41.678 41.678 0 0 0-1.706-.798c-.596-.287-1.192-.574-1.726-.82a89.337 89.337 0 0 0-1.706-.798 38.74 38.74 0 0 0-1.727-.798 9.785 9.785 0 0 1-1.685-.942 12.28 12.28 0 0 1-1.624-1.31c-.534-.471-1.028-1.024-1.5-1.597a16.928 16.928 0 0 1-1.316-1.802c-.41-.635-.76-1.31-1.09-1.986a18.26 18.26 0 0 1-.8-2.088 19.196 19.196 0 0 1-.494-2.089 13.476 13.476 0 0 1-.164-2.027V-61.49c0-.676.061-1.31.164-1.884a9.484 9.484 0 0 1 .493-1.679 6.88 6.88 0 0 1 .802-1.372 5.24 5.24 0 0 1 1.09-1.044 5.33 5.33 0 0 1 1.315-.675 4.521 4.521 0 0 1 1.5-.246c.514-.02 1.048.04 1.624.164a8.64 8.64 0 0 1 1.685.573s.679.287 1.727.778l1.706.819c.534.246 1.13.512 1.726.799l1.706.798c.576.266 1.151.553 1.727.819.555.287 1.13.573 1.685.84.596.286 1.172.573 1.706.839.596.286 1.172.573 1.706.819.638.327 1.213.614 1.706.86l1.686.86a12.807 12.807 0 0 1 3.227 2.395 14.526 14.526 0 0 1 1.46 1.679c.472.594.883 1.249 1.273 1.904.391.676.74 1.372 1.049 2.068.308.696.555 1.413.78 2.15.206.696.37 1.412.474 2.129.102.676.143 1.351.143 2.027m209.036 55.382v39.986c0 .675-.062 1.35-.165 2.027a12.81 12.81 0 0 1-.493 2.088 19.52 19.52 0 0 1-.802 2.068c-.329.675-.699 1.33-1.09 1.965a19.49 19.49 0 0 1-1.335 1.802 13.26 13.26 0 0 1-1.521 1.515 13.2 13.2 0 0 1-1.665 1.208 9.668 9.668 0 0 1-1.747.819l-1.788.635c-.514.184-1.11.41-1.789.614-.555.184-1.15.389-1.788.594-.596.204-1.192.389-1.809.593-.596.164-1.212.348-1.808.533-.617.184-1.234.368-1.83.532l-1.829.512c-.637.164-1.254.348-1.83.47-.698.185-1.315.328-1.85.451-1.13.287-1.828.45-1.828.45a9.558 9.558 0 0 1-1.83.185 6.874 6.874 0 0 1-1.726-.205c-.576-.123-1.11-.348-1.624-.614a7.7 7.7 0 0 1-1.418-1.003 7.03 7.03 0 0 1-1.151-1.31 7.018 7.018 0 0 1-.864-1.598 8.7 8.7 0 0 1-.534-1.801 9.707 9.707 0 0 1-.185-1.925V20.897c0-.655.062-1.33.185-1.965.123-.676.288-1.331.534-1.966.226-.635.514-1.249.864-1.863.329-.594.72-1.167 1.15-1.72a12.22 12.22 0 0 1 1.419-1.495c.514-.45 1.048-.839 1.624-1.207.555-.369 1.13-.697 1.726-.942a11.16 11.16 0 0 1 1.83-.574s.698-.163 1.829-.43c.534-.143 1.15-.286 1.85-.45a50.75 50.75 0 0 0 1.83-.491l1.828-.492c.596-.163 1.213-.348 1.83-.532.596-.184 1.212-.369 1.808-.553.617-.184 1.213-.389 1.81-.573.636-.205 1.232-.41 1.787-.594a80.76 80.76 0 0 0 1.789-.614c1.11-.41 1.788-.635 1.788-.635a10.125 10.125 0 0 1 1.747-.47 7.65 7.65 0 0 1 1.665-.062c.534.04 1.048.164 1.52.328.474.163.926.389 1.337.696.39.286.76.655 1.09 1.064.308.41.575.88.8 1.392.227.512.391 1.065.494 1.68.103.573.165 1.207.165 1.883M53.332-66.445v40.006c0 .655-.062 1.331-.165 2.007a14.478 14.478 0 0 1-.513 2.067 14.688 14.688 0 0 1-.823 2.048c-.308.676-.678 1.31-1.089 1.945a15.837 15.837 0 0 1-1.357 1.74 15.149 15.149 0 0 1-1.52 1.515c-.535.45-1.09.88-1.645 1.229a9.796 9.796 0 0 1-1.726.88l-1.768.717c-.493.204-1.09.45-1.747.696-.555.225-1.151.47-1.768.716-.555.226-1.15.471-1.747.737-.575.246-1.151.492-1.747.738-.576.245-1.172.49-1.747.737-.596.245-1.172.511-1.727.737l-1.747.737c-.658.286-1.254.532-1.747.757-1.069.471-1.726.758-1.726.758a8.807 8.807 0 0 1-1.706.573 7.535 7.535 0 0 1-1.624.164 5.899 5.899 0 0 1-1.5-.266 5.263 5.263 0 0 1-1.316-.655 5.147 5.147 0 0 1-1.069-1.045c-.329-.41-.575-.86-.802-1.371a9.022 9.022 0 0 1-.493-1.638 10.894 10.894 0 0 1-.164-1.884v-40.006c0-.655.061-1.351.164-2.027.124-.696.288-1.392.493-2.109.227-.696.473-1.413.802-2.088.308-.676.678-1.351 1.069-1.986.411-.655.843-1.27 1.315-1.843.473-.553.966-1.085 1.5-1.576a11.793 11.793 0 0 1 1.625-1.29c.555-.369 1.11-.676 1.706-.942l1.726-.778c.493-.205 1.09-.47 1.747-.737.535-.225 1.13-.491 1.747-.737.555-.246 1.13-.491 1.727-.737.575-.246 1.171-.512 1.747-.758l1.747-.737c.596-.245 1.192-.491 1.747-.716.617-.267 1.213-.492 1.768-.717.658-.266 1.254-.512 1.747-.717l1.768-.696a8.612 8.612 0 0 1 1.726-.512c.555-.102 1.11-.122 1.644-.102.535.041 1.049.164 1.521.348.494.164.946.41 1.357.717.411.307.781.675 1.09 1.105.328.43.595.901.822 1.413.226.532.39 1.085.513 1.7.103.593.165 1.207.165 1.883m222.642-8.456v40.006c0 .676-.062 1.31-.165 1.905a8.828 8.828 0 0 1-.514 1.72 6.734 6.734 0 0 1-.842 1.453 6.02 6.02 0 0 1-1.11 1.167 6.182 6.182 0 0 1-1.377.798 6.545 6.545 0 0 1-1.562.45 6.754 6.754 0 0 1-1.706.042 7.876 7.876 0 0 1-1.768-.328s-.699-.225-1.83-.553c-.513-.143-1.15-.307-1.829-.511-.555-.144-1.171-.328-1.829-.512l-1.809-.512c-.616-.164-1.233-.307-1.85-.471-.596-.164-1.212-.328-1.829-.491-.617-.164-1.233-.307-1.83-.471a47.921 47.921 0 0 0-1.85-.45c-.677-.164-1.294-.328-1.828-.451l-1.85-.45a9.917 9.917 0 0 1-1.81-.615 11.789 11.789 0 0 1-1.726-.942 12.257 12.257 0 0 1-1.603-1.29c-.514-.47-.966-1.003-1.398-1.555a12.353 12.353 0 0 1-1.15-1.761 11.298 11.298 0 0 1-.864-1.904 13.503 13.503 0 0 1-.534-1.986 12.734 12.734 0 0 1-.165-1.986v-40.006c0-.676.062-1.31.165-1.925a9.735 9.735 0 0 1 .534-1.76 7.18 7.18 0 0 1 .863-1.557c.33-.47.72-.9 1.151-1.27a7.261 7.261 0 0 1 1.398-.94 6.732 6.732 0 0 1 1.603-.554 7.966 7.966 0 0 1 1.727-.184 6.99 6.99 0 0 1 1.809.246l1.85.43 1.829.45c.575.143 1.213.287 1.85.471.596.143 1.212.307 1.829.47.617.165 1.233.308 1.83.472l1.85.491c.616.164 1.232.348 1.808.512l1.83.512c.678.184 1.315.368 1.829.512 1.13.307 1.829.532 1.829.532.596.184 1.192.43 1.768.717.596.307 1.15.675 1.706 1.085.555.41 1.068.88 1.562 1.412.493.512.945 1.086 1.377 1.68.41.593.78 1.207 1.11 1.862a14.293 14.293 0 0 1 1.356 4.034c.103.675.165 1.351.165 2.006m204.575 95.839v39.986c0 .675-.062 1.33-.185 1.945a8.7 8.7 0 0 1-.535 1.801 6.873 6.873 0 0 1-.863 1.577c-.329.491-.72.942-1.151 1.33a7.802 7.802 0 0 1-1.418 1.024 6.581 6.581 0 0 1-1.624.656 9.47 9.47 0 0 1-1.747.225c-.596 0-1.192-.062-1.809-.164 0 0-.72-.143-1.87-.389a450.11 450.11 0 0 1-1.85-.43 56.453 56.453 0 0 1-1.85-.43c-.596-.123-1.192-.287-1.83-.45l-1.829-.471-1.85-.492c-.616-.163-1.233-.348-1.808-.511-.638-.185-1.254-.369-1.83-.533a94.351 94.351 0 0 0-1.808-.532c-1.13-.328-1.81-.594-1.81-.594a10.21 10.21 0 0 1-1.767-.757 12.543 12.543 0 0 1-1.685-1.106 11.618 11.618 0 0 1-1.542-1.474 13.896 13.896 0 0 1-1.356-1.72c-.412-.614-.802-1.249-1.11-1.904a14.541 14.541 0 0 1-.843-2.027c-.206-.676-.39-1.372-.493-2.068a12.997 12.997 0 0 1-.165-2.006V11.418c0-.656.062-1.29.165-1.884a8.22 8.22 0 0 1 .493-1.7 6.584 6.584 0 0 1 .843-1.433c.308-.43.698-.819 1.11-1.126a5.49 5.49 0 0 1 1.356-.757 6.075 6.075 0 0 1 1.542-.39 6.61 6.61 0 0 1 1.685-.02 8.078 8.078 0 0 1 1.768.39s.678.245 1.809.573c.513.163 1.13.327 1.808.532.576.164 1.192.348 1.83.532.575.185 1.192.369 1.808.533l1.85.47c.617.164 1.233.328 1.83.471.637.164 1.253.328 1.829.471.658.144 1.274.287 1.85.41.699.164 1.315.307 1.85.43 1.15.266 1.87.389 1.87.389a9.679 9.679 0 0 1 1.809.553 9.397 9.397 0 0 1 1.747.9c.575.348 1.11.758 1.624 1.188a12.043 12.043 0 0 1 2.569 3.173c.35.615.637 1.229.863 1.884.247.635.411 1.29.535 1.945.123.655.185 1.31.185 1.986M201.835 259.972v40.006c0 .655-.062 1.31-.164 1.924-.124.635-.309 1.27-.535 1.843a9.134 9.134 0 0 1-.884 1.658 8.916 8.916 0 0 1-1.171 1.434c-.432.43-.925.819-1.439 1.146a7.634 7.634 0 0 1-1.644.799 7.255 7.255 0 0 1-1.768.47c-.596.103-1.213.123-1.85.103 0 0-.72-.041-1.89-.102-.556-.041-1.193-.041-1.892-.062a51.619 51.619 0 0 0-1.89-.082l-1.912-.061c-.617 0-1.254-.02-1.891-.02-.637-.021-1.275-.021-1.891-.042-.658-.02-1.295-.02-1.891-.02H175.32c-1.172 0-1.892.02-1.892.02-.637 0-1.253-.04-1.85-.163a7.81 7.81 0 0 1-1.788-.533 7.754 7.754 0 0 1-1.623-.88 8.062 8.062 0 0 1-1.44-1.188 9.142 9.142 0 0 1-1.191-1.474c-.33-.532-.638-1.085-.864-1.699a9.474 9.474 0 0 1-.534-1.843 10.283 10.283 0 0 1-.185-1.965v-39.986c0-.676.062-1.33.185-1.965.123-.656.288-1.29.534-1.904.226-.615.535-1.208.864-1.761.349-.553.74-1.085 1.192-1.556.431-.471.904-.922 1.439-1.29a7.703 7.703 0 0 1 1.623-.962 9.224 9.224 0 0 1 1.788-.615 10.879 10.879 0 0 1 1.85-.225s.72 0 1.891-.02h3.803c.596 0 1.233.02 1.89.02.617.02 1.255.041 1.892.041.637.02 1.274.02 1.89.041.659 0 1.296.041 1.912.061.658.021 1.295.041 1.891.062.7.02 1.336.04 1.891.061 1.172.062 1.891.103 1.891.103.637.04 1.254.143 1.85.286a8.754 8.754 0 0 1 1.768.676c.596.266 1.13.635 1.644 1.024.514.41 1.007.86 1.439 1.351.432.491.822 1.044 1.171 1.597.35.573.638 1.167.884 1.802.226.614.411 1.249.535 1.924.102.635.164 1.29.164 1.966m207.596 85.786v39.985c0 .676-.061 1.29-.164 1.884a7.449 7.449 0 0 1-.473 1.617 5.782 5.782 0 0 1-.76 1.31 4.216 4.216 0 0 1-1.049.963c-.39.266-.801.45-1.253.573a5.543 5.543 0 0 1-1.44.123 7.785 7.785 0 0 1-1.561-.307 9.018 9.018 0 0 1-1.603-.717s-.658-.348-1.665-.941l-1.624-.942-1.644-.962c-.535-.308-1.07-.635-1.645-.963-.534-.307-1.069-.634-1.624-.962-.554-.307-1.089-.655-1.623-.983-.555-.327-1.09-.675-1.624-.982-.555-.349-1.11-.676-1.603-.983-.617-.39-1.151-.717-1.624-1.003-1.007-.615-1.603-1.004-1.603-1.004a12.084 12.084 0 0 1-1.562-1.187 14.985 14.985 0 0 1-1.5-1.515c-.494-.553-.946-1.167-1.398-1.802a25.166 25.166 0 0 1-1.213-2.027 20.332 20.332 0 0 1-.987-2.15 18.458 18.458 0 0 1-.72-2.21 17.002 17.002 0 0 1-.451-2.171 14.106 14.106 0 0 1-.144-2.047v-40.007c0-.675.04-1.29.144-1.863a7.076 7.076 0 0 1 .452-1.576c.185-.471.431-.901.72-1.25.287-.347.616-.654.986-.88.37-.225.78-.389 1.213-.47a4.537 4.537 0 0 1 1.397-.041c.473.061.987.184 1.5.389.494.204 1.028.47 1.563.798 0 0 .596.41 1.603 1.024.473.286 1.007.614 1.624.983.493.307 1.048.634 1.603.982l1.624 1.003c.534.308 1.069.656 1.623.983.555.328 1.09.635 1.645.963.555.327 1.09.634 1.624.941.575.348 1.13.676 1.644.963.596.368 1.151.675 1.624.962 1.007.594 1.665.921 1.665.921.555.307 1.089.676 1.603 1.106.555.43 1.069.9 1.562 1.433.493.532.987 1.106 1.439 1.72.452.614.863 1.27 1.253 1.924.391.676.74 1.372 1.049 2.089.288.696.555 1.412.76 2.129.206.717.37 1.433.473 2.13.103.695.164 1.371.164 2.047m213.701-17.915v39.986c0 .675-.061 1.35-.164 2.027a14.21 14.21 0 0 1-.514 2.047 17.631 17.631 0 0 1-.802 2.047c-.328.676-.698 1.331-1.11 1.945a16.8 16.8 0 0 1-1.336 1.782 17.908 17.908 0 0 1-1.52 1.535c-.514.471-1.07.901-1.645 1.27a10.42 10.42 0 0 1-1.706.9l-1.747.737c-.493.205-1.09.471-1.726.778l-1.727.779c-.555.266-1.13.532-1.727.798-.555.266-1.13.532-1.706.798-.596.246-1.15.533-1.726.799-.576.287-1.151.573-1.706.84l-1.706.818c-.637.328-1.213.594-1.686.84-1.068.512-1.706.86-1.706.86a9.818 9.818 0 0 1-1.644.655 7.65 7.65 0 0 1-1.582.246 5.586 5.586 0 0 1-1.46-.185 4.142 4.142 0 0 1-1.295-.593 4.745 4.745 0 0 1-1.048-.983 6.324 6.324 0 0 1-.781-1.331c-.206-.491-.35-1.024-.473-1.617a10.894 10.894 0 0 1-.164-1.884V343.73c0-.655.061-1.352.164-2.027.124-.696.267-1.413.473-2.13.226-.716.493-1.433.781-2.129.308-.696.678-1.392 1.048-2.047.39-.655.822-1.29 1.295-1.904a16.22 16.22 0 0 1 1.46-1.659 12.616 12.616 0 0 1 1.582-1.392c.535-.389 1.09-.737 1.644-1.024 0 0 .638-.327 1.706-.839a64.172 64.172 0 0 1 1.686-.84c.534-.266 1.11-.532 1.706-.839.555-.266 1.13-.532 1.706-.819a44.58 44.58 0 0 1 1.726-.819c.576-.266 1.151-.532 1.706-.798.597-.266 1.172-.533 1.727-.778.617-.287 1.192-.553 1.727-.799a68.649 68.649 0 0 1 1.726-.757c1.09-.471 1.747-.737 1.747-.737a8.994 8.994 0 0 1 1.706-.533c.576-.123 1.13-.163 1.644-.123.535.021 1.049.103 1.521.287.473.184.925.41 1.336.717.412.307.782.675 1.11 1.105.309.41.576.88.802 1.413a8.03 8.03 0 0 1 .514 1.679c.103.594.164 1.228.164 1.904M126.278 263.268v39.986c0 .675-.061 1.33-.185 1.986-.123.675-.287 1.33-.534 1.986-.226.655-.514 1.269-.863 1.883-.33.614-.72 1.188-1.151 1.72a12.399 12.399 0 0 1-1.419 1.515c-.493.45-1.048.86-1.603 1.208a9.483 9.483 0 0 1-1.768.88 9.178 9.178 0 0 1-1.808.533s-.72.143-1.85.389c-.535.102-1.172.246-1.87.389l-1.85.389-1.85.41c-.617.122-1.234.265-1.85.388-.617.144-1.254.266-1.85.43l-1.85.45c-.637.164-1.254.308-1.83.451-.698.164-1.315.307-1.85.45l-1.849.451a9.154 9.154 0 0 1-1.788.246c-.596.02-1.172 0-1.727-.103a5.753 5.753 0 0 1-1.562-.47 6.997 6.997 0 0 1-1.397-.881 6.91 6.91 0 0 1-1.131-1.187A7.202 7.202 0 0 1 90 315.25a7.608 7.608 0 0 1-.514-1.72 9.65 9.65 0 0 1-.185-1.903V271.62c0-.675.062-1.35.185-2.006.103-.676.288-1.351.514-2.027.226-.655.514-1.33.843-1.945.329-.655.72-1.249 1.13-1.843.432-.573.884-1.126 1.398-1.617.493-.491 1.007-.962 1.562-1.351.555-.41 1.13-.778 1.727-1.045.575-.266 1.192-.47 1.809-.634l1.829-.45c.534-.124 1.15-.287 1.85-.451.575-.143 1.192-.287 1.83-.45.595-.144 1.212-.287 1.849-.451a48.978 48.978 0 0 1 1.85-.41l1.85-.409c.637-.123 1.253-.266 1.85-.389.657-.143 1.274-.266 1.85-.389.698-.164 1.335-.287 1.87-.41 1.13-.245 1.85-.388 1.85-.388a9.307 9.307 0 0 1 1.829-.144 8.17 8.17 0 0 1 1.747.246c.555.143 1.11.368 1.603.635.514.266.987.593 1.419.982a7.03 7.03 0 0 1 1.15 1.31c.35.472.638 1.004.864 1.577.247.553.411 1.147.534 1.781.124.615.185 1.25.185 1.925m219.312 41.665v39.985c0 .676-.04 1.31-.143 1.884a7.449 7.449 0 0 1-.473 1.617 5.983 5.983 0 0 1-.781 1.331 4.647 4.647 0 0 1-1.049.962c-.39.267-.801.45-1.274.574a4.84 4.84 0 0 1-1.46.163 6.411 6.411 0 0 1-1.582-.225 9.818 9.818 0 0 1-1.644-.655l-1.686-.86c-.493-.246-1.068-.532-1.706-.84-.534-.265-1.11-.552-1.706-.839-.534-.266-1.11-.552-1.706-.84a64.486 64.486 0 0 1-1.685-.839l-1.727-.798c-.575-.287-1.15-.553-1.706-.819-.596-.287-1.192-.553-1.726-.798-.637-.308-1.213-.574-1.706-.82-1.048-.49-1.727-.777-1.727-.777a11.376 11.376 0 0 1-1.685-.942 12.28 12.28 0 0 1-1.624-1.31 15.863 15.863 0 0 1-1.5-1.598 19.604 19.604 0 0 1-1.316-1.822c-.41-.634-.76-1.29-1.09-1.986a19.52 19.52 0 0 1-.8-2.068 19.196 19.196 0 0 1-.494-2.088 13.476 13.476 0 0 1-.164-2.027v-40.006c0-.655.061-1.29.164-1.884a9.782 9.782 0 0 1 .493-1.658c.226-.512.494-.983.802-1.392.329-.39.678-.758 1.09-1.044a5.33 5.33 0 0 1 1.315-.676 5.896 5.896 0 0 1 1.5-.246c.514 0 1.048.041 1.624.184a8.64 8.64 0 0 1 1.685.574s.679.266 1.727.778l1.706.798c.534.266 1.13.533 1.726.82l1.706.798c.576.266 1.151.532 1.727.819.555.286 1.13.552 1.685.84.596.286 1.172.552 1.706.818.596.307 1.172.573 1.706.84.638.307 1.213.593 1.706.839l1.686.86c.555.286 1.11.635 1.644 1.044a11 11 0 0 1 1.583 1.372 16.22 16.22 0 0 1 1.46 1.658c.472.614.883 1.25 1.273 1.925.391.655.74 1.351 1.049 2.068.308.696.555 1.412.78 2.129.206.716.37 1.433.474 2.13.102.695.143 1.37.143 2.047m209.036 55.361V400.3c0 .676-.062 1.352-.165 2.027a12.81 12.81 0 0 1-.493 2.089 19.52 19.52 0 0 1-.802 2.068c-.329.675-.699 1.33-1.09 1.965a19.191 19.191 0 0 1-1.335 1.781 13.461 13.461 0 0 1-1.521 1.536c-.535.45-1.09.84-1.665 1.187a9.767 9.767 0 0 1-1.747.84l-1.788.634a80.76 80.76 0 0 1-1.789.615c-.555.184-1.15.389-1.788.593-.596.185-1.192.39-1.809.574-.596.184-1.212.368-1.808.552-.617.185-1.234.369-1.83.533l-1.829.491c-.637.184-1.254.348-1.83.492-.698.163-1.315.327-1.85.45l-1.828.43a8.214 8.214 0 0 1-1.83.205 7.967 7.967 0 0 1-1.726-.205 5.822 5.822 0 0 1-1.624-.635 6.742 6.742 0 0 1-1.418-.983 7.03 7.03 0 0 1-1.151-1.31 7.478 7.478 0 0 1-.864-1.597 8.7 8.7 0 0 1-.534-1.802 9.859 9.859 0 0 1-.185-1.924V370.9c0-.676.062-1.331.185-1.986s.288-1.31.534-1.945c.226-.655.514-1.27.864-1.863.329-.615.72-1.188 1.15-1.72a10.9 10.9 0 0 1 1.419-1.495 13.5 13.5 0 0 1 1.624-1.228c.555-.369 1.13-.676 1.726-.922a9.483 9.483 0 0 1 1.83-.573s.698-.164 1.829-.45c.534-.123 1.15-.266 1.85-.43.575-.144 1.192-.328 1.83-.492l1.828-.511a86.939 86.939 0 0 0 1.83-.533 60.337 60.337 0 0 1 1.808-.532c.617-.184 1.213-.39 1.81-.594.636-.205 1.232-.389 1.787-.573.679-.225 1.275-.45 1.789-.635 1.11-.389 1.788-.635 1.788-.635a9.995 9.995 0 0 1 1.747-.45 7.65 7.65 0 0 1 1.665-.061c.534.04 1.048.163 1.52.327.474.164.926.39 1.337.696.39.287.76.635 1.09 1.065.308.41.575.86.8 1.392.227.512.391 1.065.494 1.659.103.593.165 1.228.165 1.883M53.332 283.558v40.006c0 .655-.062 1.33-.165 2.006a14.478 14.478 0 0 1-.513 2.068 14.688 14.688 0 0 1-.823 2.048c-.308.675-.678 1.31-1.089 1.945a14.11 14.11 0 0 1-1.357 1.74 15.149 15.149 0 0 1-1.52 1.515 12.7 12.7 0 0 1-1.645 1.228 9.796 9.796 0 0 1-1.726.88l-1.768.717c-.493.205-1.09.45-1.747.717l-1.768.696c-.555.225-1.15.471-1.747.737-.575.246-1.151.492-1.747.737-.576.246-1.172.492-1.747.737-.596.266-1.172.512-1.727.737-.616.267-1.212.512-1.747.737-.658.287-1.254.533-1.747.758-1.069.47-1.726.778-1.726.778-.596.246-1.151.43-1.706.553a7.535 7.535 0 0 1-1.624.164 5.263 5.263 0 0 1-2.816-.921 5.147 5.147 0 0 1-1.069-1.045c-.329-.41-.575-.86-.802-1.372a9.022 9.022 0 0 1-.493-1.638 10.894 10.894 0 0 1-.164-1.883v-40.006c0-.656.061-1.352.164-2.027.124-.696.288-1.393.493-2.089.227-.716.473-1.433.802-2.108.308-.676.678-1.352 1.069-1.986.411-.656.843-1.27 1.315-1.843.473-.553.966-1.085 1.5-1.577.515-.47 1.07-.92 1.625-1.29.555-.368 1.11-.675 1.706-.941 0 0 .657-.287 1.726-.778.493-.205 1.09-.471 1.747-.737.535-.226 1.13-.492 1.747-.737.555-.246 1.13-.492 1.727-.737.575-.246 1.171-.492 1.747-.758.596-.246 1.172-.491 1.747-.737.596-.246 1.192-.491 1.747-.717.617-.266 1.213-.491 1.768-.716.658-.266 1.254-.512 1.747-.717l1.768-.696a8.612 8.612 0 0 1 1.726-.512 7.479 7.479 0 0 1 1.644-.102c.535.04 1.049.164 1.521.348.494.184.946.43 1.357.737.411.307.781.655 1.09 1.085.328.43.595.9.822 1.413.226.532.39 1.085.513 1.7.103.593.165 1.207.165 1.883m222.642-8.456v40.006c0 .676-.062 1.31-.165 1.904a8.828 8.828 0 0 1-.514 1.72 6.734 6.734 0 0 1-.842 1.454 6.02 6.02 0 0 1-1.11 1.167 6.182 6.182 0 0 1-1.377.798 6.545 6.545 0 0 1-1.562.45 7.84 7.84 0 0 1-1.706.062 9.3 9.3 0 0 1-1.768-.348s-.699-.225-1.83-.532c-.513-.164-1.15-.328-1.829-.512-.555-.164-1.171-.348-1.829-.533-.576-.163-1.192-.327-1.809-.511-.616-.164-1.233-.307-1.85-.471-.596-.164-1.212-.328-1.829-.492-.617-.163-1.233-.307-1.83-.47a47.921 47.921 0 0 0-1.85-.451c-.677-.164-1.294-.328-1.828-.45-1.13-.287-1.85-.45-1.85-.45a9.917 9.917 0 0 1-1.81-.615 11.789 11.789 0 0 1-1.726-.942 12.257 12.257 0 0 1-1.603-1.29c-.514-.47-.966-1.003-1.398-1.556a12.353 12.353 0 0 1-1.15-1.76 11.298 11.298 0 0 1-.864-1.905 13.503 13.503 0 0 1-.534-1.986 12.734 12.734 0 0 1-.165-1.986v-40.006c0-.675.062-1.31.165-1.904a9.47 9.47 0 0 1 .534-1.781 7.18 7.18 0 0 1 .863-1.556c.33-.47.72-.9 1.151-1.27a7.261 7.261 0 0 1 1.398-.941 6.732 6.732 0 0 1 1.603-.553 7.966 7.966 0 0 1 1.727-.184 6.99 6.99 0 0 1 1.809.245l1.85.43c.534.144 1.15.287 1.829.45.575.144 1.213.287 1.85.472.596.143 1.212.307 1.829.47.617.164 1.233.308 1.83.471l1.85.492c.616.164 1.232.348 1.808.512l1.83.512c.678.184 1.315.368 1.829.511 1.13.308 1.829.533 1.829.533.596.184 1.192.43 1.768.716.596.307 1.15.676 1.706 1.085.555.41 1.068.88 1.562 1.413.493.512.945 1.085 1.377 1.679.41.594.78 1.208 1.11 1.863a14.293 14.293 0 0 1 1.356 4.034c.103.675.165 1.35.165 2.006m204.575 95.839v39.985c0 .676-.062 1.331-.185 1.945a8.7 8.7 0 0 1-.535 1.802 6.873 6.873 0 0 1-.863 1.577c-.329.491-.72.941-1.151 1.33a6.93 6.93 0 0 1-1.418 1.024 6.581 6.581 0 0 1-1.624.655 9.47 9.47 0 0 1-1.747.225c-.596 0-1.192-.06-1.809-.163 0 0-.72-.144-1.87-.39a450.11 450.11 0 0 1-1.85-.43 56.45 56.45 0 0 1-1.85-.43c-.596-.122-1.192-.286-1.83-.45a47.67 47.67 0 0 0-1.829-.47l-1.85-.492c-.616-.164-1.233-.348-1.808-.512l-1.83-.532-1.808-.532c-1.13-.328-1.81-.594-1.81-.594a10.21 10.21 0 0 1-1.767-.758 12.543 12.543 0 0 1-1.685-1.105 11.617 11.617 0 0 1-1.542-1.474 13.896 13.896 0 0 1-1.356-1.72c-.412-.614-.802-1.25-1.11-1.904a14.541 14.541 0 0 1-.843-2.027c-.206-.676-.39-1.372-.493-2.068a12.997 12.997 0 0 1-.165-2.007V361.42c0-.655.062-1.29.165-1.883a8.22 8.22 0 0 1 .493-1.7 6.584 6.584 0 0 1 .843-1.433c.308-.43.698-.819 1.11-1.126a5.49 5.49 0 0 1 1.356-.757 6.075 6.075 0 0 1 1.542-.39 6.61 6.61 0 0 1 1.685-.02 8.078 8.078 0 0 1 1.768.39s.678.245 1.809.572c.513.164 1.13.328 1.808.533.576.163 1.192.348 1.83.532.575.184 1.192.369 1.808.532.617.144 1.234.307 1.85.471.617.164 1.233.328 1.83.471.637.164 1.253.328 1.829.471.658.143 1.274.287 1.85.41.699.163 1.315.307 1.85.43 1.15.266 1.87.388 1.87.388a9.679 9.679 0 0 1 1.809.553 9.397 9.397 0 0 1 1.747.901c.575.348 1.11.758 1.624 1.188a12.043 12.043 0 0 1 2.569 3.173c.35.614.637 1.229.863 1.884.247.634.411 1.29.535 1.945.123.655.185 1.31.185 1.986" stroke="#1b0000"/><path transform="matrix(.19005 0 0 .1908 71.65 58.31)" fill="#f9f7f8" d="M201.835-.027v210.001c0 .655-.062 1.31-.164 1.925-.124.655-.309 1.27-.535 1.842a9.134 9.134 0 0 1-.884 1.659 8.916 8.916 0 0 1-1.171 1.433c-.432.43-.925.819-1.439 1.147a7.634 7.634 0 0 1-1.644.798 7.255 7.255 0 0 1-1.768.471c-.596.102-1.213.123-1.85.102 0 0-.657-.04-1.89-.102-.535-.041-1.172-.041-1.892-.061-.575-.02-1.212-.062-1.89-.082l-1.912-.062c-.596 0-1.233-.02-1.891-.02-.596-.02-1.233-.02-1.891-.041-.617 0-1.233-.02-1.891-.02h-3.803c-.616 0-1.253 0-1.89.02-.617 0-1.254.02-1.892.04-.616 0-1.253.021-1.89.021l-1.912.062-1.891.061c-.617.041-1.254.061-1.891.082-.617.02-1.254.061-1.891.102-.617.02-1.254.062-1.891.103-.637.02-1.254.061-1.891.102-.637.02-1.254.082-1.891.123-.637.04-1.254.102-1.891.143-.637.041-1.254.082-1.89.144-.638.061-1.255.102-1.892.163-.617.062-1.254.123-1.89.164-.618.062-1.255.123-1.892.184-.616.082-1.254.164-1.87.226-.637.082-1.254.143-1.891.225-.617.061-1.254.143-1.891.205-.617.081-1.254.143-1.87.225-.638.082-1.254.143-1.892.225-.616.061-1.253.164-1.87.266-.637.082-1.254.184-1.87.266-.638.103-1.254.205-1.891.287-.617.102-1.234.184-1.87.287-.617.081-1.255.184-1.871.266-.617.102-1.254.184-1.87.307-.617.123-1.255.225-1.871.348l-1.87.327-1.85.349c-.638.102-1.254.225-1.87.327-.617.123-1.255.246-1.871.348-.617.123-1.234.266-1.85.39-.617.122-1.233.265-1.85.388l-1.87.41c-.617.123-1.234.266-1.85.389-.617.143-1.234.266-1.85.41-.617.122-1.233.265-1.85.409l-1.85.45-1.83.45c-.616.144-1.232.308-1.85.45-.616.144-1.232.308-1.828.451l-1.85.45c-.617.165-1.213.349-1.83.513-.616.163-1.212.327-1.829.491l-1.83.512-1.829.491-1.829.512c-.596.164-1.213.348-1.809.532-.616.185-1.212.369-1.829.553-.596.184-1.213.348-1.809.533-.596.184-1.212.368-1.808.552-.617.185-1.213.369-1.81.553-.616.184-1.232.369-1.829.553-.596.205-1.192.41-1.788.594-.616.204-1.212.41-1.808.614-.597.184-1.193.389-1.789.594l-1.808.593c-.597.185-1.213.39-1.81.594-.595.184-1.191.41-1.787.614-.596.226-1.193.43-1.789.635-.596.225-1.192.43-1.767.635-.617.225-1.213.43-1.788.634-.617.226-1.213.43-1.789.656-.596.204-1.192.41-1.788.634-.596.226-1.192.45-1.768.676-.596.225-1.192.45-1.767.676-.596.225-1.192.45-1.768.675l-1.788.676c-.596.225-1.192.45-1.768.675l-1.747.717c-.596.225-1.192.471-1.767.696-.597.246-1.193.492-1.768.717-.596.245-1.172.47-1.747.716-.596.226-1.192.471-1.768.696-.596.246-1.171.492-1.747.738-.596.245-1.192.49-1.747.737-.596.266-1.192.511-1.747.737-.617.266-1.192.512-1.727.737-.637.266-1.233.532-1.747.737-.678.286-1.274.532-1.747.757-1.13.492-1.726.778-1.726.778-.596.246-1.151.43-1.706.553a7.535 7.535 0 0 1-1.624.164 5.263 5.263 0 0 1-2.816-.921 5.147 5.147 0 0 1-1.069-1.045 6.88 6.88 0 0 1-.802-1.371 9.022 9.022 0 0 1-.493-1.638 10.894 10.894 0 0 1-.164-1.884V38.198c0-.676.061-1.352.164-2.027.124-.697.288-1.413.493-2.11a19.85 19.85 0 0 1 .802-2.088c.308-.696.678-1.35 1.069-2.006.411-.635.843-1.249 1.315-1.822a13.72 13.72 0 0 1 1.5-1.577 11.793 11.793 0 0 1 1.625-1.29c.555-.368 1.11-.696 1.706-.941l1.726-.778c.473-.205 1.069-.45 1.747-.737.514-.226 1.11-.471 1.747-.737.535-.246 1.11-.492 1.727-.758.555-.225 1.15-.47 1.747-.737.555-.225 1.151-.471 1.747-.737.576-.246 1.151-.492 1.747-.737.576-.225 1.172-.45 1.768-.696l1.747-.717c.575-.225 1.171-.47 1.768-.696.575-.246 1.15-.47 1.767-.717.576-.225 1.151-.47 1.747-.716.576-.225 1.172-.45 1.768-.676.596-.225 1.172-.43 1.768-.675.596-.205 1.192-.43 1.788-.676.575-.205 1.171-.43 1.767-.655.576-.226 1.172-.45 1.768-.676.596-.225 1.172-.45 1.788-.655.576-.205 1.172-.43 1.789-.635.575-.225 1.171-.43 1.767-.635.596-.225 1.192-.43 1.788-.634.596-.225 1.193-.43 1.789-.635.575-.225 1.171-.45 1.767-.655a62.107 62.107 0 0 0 1.809-.594c.596-.184 1.192-.389 1.809-.594a60.905 60.905 0 0 0 1.788-.593c.596-.185 1.192-.39 1.809-.594a60.906 60.906 0 0 0 1.788-.594c.596-.184 1.213-.368 1.83-.553.595-.184 1.191-.368 1.808-.552.596-.185 1.213-.369 1.809-.553.596-.184 1.212-.369 1.809-.553.616-.184 1.212-.369 1.829-.532a46.576 46.576 0 0 1 1.809-.533l1.829-.511c.617-.164 1.213-.328 1.83-.492A61.008 61.008 0 0 1 92.94.607l1.829-.491c.616-.184 1.213-.369 1.83-.512l1.849-.45c.596-.144 1.213-.307 1.83-.45l1.85-.451c.616-.144 1.212-.307 1.829-.45l1.85-.451 1.85-.43 1.85-.389c.616-.123 1.232-.266 1.849-.389.617-.143 1.233-.266 1.85-.41.637-.122 1.254-.266 1.87-.389.617-.143 1.234-.286 1.85-.389.617-.122 1.254-.225 1.87-.348l1.85-.327 1.87-.348a59.946 59.946 0 0 0 1.871-.348l1.87-.328c.617-.123 1.234-.205 1.871-.307.617-.082 1.254-.184 1.87-.266a58.98 58.98 0 0 1 1.871-.287c.637-.102 1.254-.184 1.87-.286.638-.082 1.254-.185 1.891-.267a58.98 58.98 0 0 1 1.87-.286c.638-.062 1.255-.144 1.892-.205.616-.082 1.254-.143 1.87-.225.637-.062 1.275-.143 1.891-.205.637-.082 1.254-.164 1.891-.225.617-.082 1.254-.143 1.87-.225.638-.062 1.275-.123 1.892-.185.637-.061 1.253-.102 1.89-.163.638-.062 1.254-.123 1.892-.164a58.723 58.723 0 0 1 1.89-.143 58.723 58.723 0 0 1 1.891-.144c.638-.04 1.254-.102 1.891-.143.638-.02 1.254-.062 1.891-.102a55.46 55.46 0 0 0 1.891-.103c.638-.02 1.275-.061 1.891-.082.638-.02 1.275-.061 1.891-.082.638-.02 1.275-.04 1.891-.061l1.912-.061c.637 0 1.274-.021 1.89-.041.638 0 1.275-.02 1.892-.02.637-.021 1.274-.021 1.89-.021h3.803c.658 0 1.275 0 1.891.02.658 0 1.295.02 1.891.02.679.021 1.295.021 1.891.042.679 0 1.316.04 1.912.06.678.021 1.315.042 1.89.062.72.041 1.357.041 1.892.082 1.233.062 1.89.103 1.89.103.638.02 1.254.122 1.85.286a8.157 8.157 0 0 1 1.789.655c.575.287 1.11.635 1.624 1.045.513.389 1.007.839 1.438 1.35.432.492.822 1.025 1.172 1.598.35.553.637 1.167.884 1.781.226.614.41 1.27.534 1.925.103.634.165 1.31.165 1.965M409.41 85.738V295.74c0 .655-.062 1.29-.165 1.863a7.637 7.637 0 0 1-.472 1.638 6.266 6.266 0 0 1-.76 1.31 4.647 4.647 0 0 1-1.05.962c-.39.267-.8.45-1.253.553a4.72 4.72 0 0 1-1.439.123 5.694 5.694 0 0 1-1.562-.307 7.752 7.752 0 0 1-1.603-.717s-.596-.307-1.665-.921c-.452-.266-.986-.594-1.624-.962-.493-.287-1.048-.614-1.644-.963-.514-.286-1.048-.614-1.624-.941-.534-.307-1.069-.635-1.644-.963-.514-.307-1.048-.655-1.624-.982-.514-.328-1.048-.656-1.603-1.004a49.228 49.228 0 0 1-1.624-.982c-.534-.328-1.069-.656-1.624-.983-.513-.328-1.048-.655-1.603-1.003-.514-.348-1.048-.676-1.603-1.024-.514-.328-1.048-.676-1.603-1.024-.514-.327-1.049-.675-1.583-1.003-.534-.348-1.069-.676-1.603-1.024l-1.583-1.044c-.514-.348-1.048-.696-1.582-1.044-.514-.348-1.049-.696-1.583-1.065a52.413 52.413 0 0 1-1.583-1.044c-.514-.327-1.048-.696-1.562-1.044-.534-.369-1.048-.717-1.583-1.085a222.9 222.9 0 0 1-1.562-1.065c-.514-.348-1.027-.716-1.562-1.064-.514-.348-1.027-.717-1.562-1.065l-1.541-1.106a71.713 71.713 0 0 1-1.563-1.085l-1.541-1.105a70.757 70.757 0 0 1-1.542-1.085c-.514-.369-1.048-.738-1.562-1.106-.514-.348-1.028-.737-1.52-1.106l-1.542-1.105c-.514-.39-1.028-.758-1.521-1.126-.514-.369-1.028-.737-1.542-1.126-.514-.369-1.028-.737-1.52-1.106a11.915 11.915 0 0 0-1.625-1.003c-.555-.287-1.11-.594-1.665-.88l-1.685-.901c-.555-.287-1.11-.574-1.665-.88-.555-.287-1.13-.574-1.685-.86l-1.686-.86c-.575-.287-1.13-.574-1.706-.86-.555-.287-1.11-.574-1.685-.86a64.49 64.49 0 0 0-1.686-.84c-.575-.287-1.15-.573-1.706-.84-.575-.286-1.15-.552-1.706-.839-.575-.286-1.13-.553-1.706-.84-.575-.265-1.13-.532-1.706-.798-.575-.286-1.15-.552-1.726-.819-.576-.266-1.13-.532-1.706-.798-.576-.287-1.151-.553-1.727-.82-.575-.265-1.15-.51-1.726-.777a64.044 64.044 0 0 0-1.727-.778c-.575-.266-1.15-.532-1.726-.778-.576-.266-1.151-.532-1.727-.778-.575-.246-1.15-.512-1.747-.758-.575-.245-1.151-.512-1.726-.757a44.836 44.836 0 0 1-1.748-.758c-.575-.245-1.171-.491-1.747-.737-.575-.245-1.171-.47-1.747-.716-.596-.246-1.171-.492-1.747-.737-.596-.226-1.171-.471-1.768-.717-.575-.246-1.171-.47-1.747-.696-.596-.246-1.192-.471-1.767-.696l-1.768-.696a63.154 63.154 0 0 0-1.768-.697l-1.767-.655-1.788-.675c-.596-.226-1.172-.45-1.768-.676-.596-.205-1.192-.43-1.788-.635l-1.788-.634c-.597-.226-1.193-.43-1.789-.635a62.204 62.204 0 0 0-1.788-.635l-1.788-.593-1.788-.615a183.99 183.99 0 0 1-1.81-.614c-.595-.205-1.212-.389-1.808-.573-.596-.184-1.213-.39-1.788-.573-.617-.205-1.213-.39-1.809-.574-.616-.204-1.212-.389-1.809-.573-.616-.184-1.233-.348-1.829-.532-.616-.185-1.213-.369-1.809-.553a86.942 86.942 0 0 0-1.829-.532l-1.809-.512c-.637-.185-1.233-.348-1.829-.512l-1.83-.512c-.637-.184-1.253-.328-1.829-.491-.637-.164-1.253-.328-1.829-.471-.658-.164-1.274-.328-1.85-.471-.658-.184-1.274-.328-1.83-.471-.719-.164-1.335-.328-1.849-.45-1.192-.287-1.83-.43-1.83-.43a13.417 13.417 0 0 1-1.808-.615 11.127 11.127 0 0 1-1.747-.962 13.196 13.196 0 0 1-1.603-1.27 14.745 14.745 0 0 1-1.398-1.576 12.156 12.156 0 0 1-1.151-1.74 15.89 15.89 0 0 1-.863-1.904 11.288 11.288 0 0 1-.514-1.986 10.878 10.878 0 0 1-.185-2.007V5.378c0-.655.061-1.29.185-1.904a8.138 8.138 0 0 1 .514-1.782 9.475 9.475 0 0 1 .863-1.556 6.782 6.782 0 0 1 2.549-2.19 7.486 7.486 0 0 1 1.603-.574 8.157 8.157 0 0 1 1.747-.184c.575.02 1.192.103 1.809.246l1.829.45c.514.123 1.13.266 1.85.43.555.144 1.171.287 1.83.471.575.143 1.191.307 1.828.471.597.164 1.213.307 1.85.491.576.144 1.192.308 1.83.471.596.164 1.192.348 1.829.512l1.809.512c.596.164 1.212.348 1.83.512a36.61 36.61 0 0 1 1.828.553c.596.163 1.193.348 1.81.532.595.184 1.212.369 1.808.553a36.61 36.61 0 0 1 1.83.553c.575.184 1.191.389 1.787.573.596.184 1.213.389 1.81.573.595.184 1.212.369 1.808.573.596.205 1.192.41 1.809.615.575.204 1.192.41 1.788.614.596.205 1.192.389 1.788.594.596.204 1.192.43 1.788.634.596.205 1.192.43 1.789.635.596.205 1.192.43 1.788.635.596.225 1.192.43 1.788.655.596.205 1.172.43 1.768.655l1.788.676c.575.225 1.171.45 1.767.655.597.225 1.172.47 1.768.696.576.225 1.172.47 1.768.696.575.225 1.171.47 1.767.696.576.225 1.172.45 1.747.696.597.246 1.172.492 1.748.737.596.226 1.171.471 1.767.717.576.246 1.151.491 1.747.716.576.246 1.172.492 1.747.758.576.246 1.151.491 1.748.737a63.2 63.2 0 0 0 1.726.758l1.747.757c.576.246 1.151.512 1.727.778.575.246 1.15.512 1.726.778l1.727.778c.575.266 1.15.512 1.726.778.576.266 1.151.553 1.727.82.555.265 1.13.531 1.706.798.575.266 1.15.552 1.706.819l1.726.798c.555.287 1.13.573 1.706.84.555.286 1.13.552 1.686.839.575.287 1.15.553 1.706.84a43.91 43.91 0 0 1 1.706.839c.555.286 1.13.573 1.685.86.576.286 1.13.573 1.686.86.575.286 1.13.573 1.706.86.555.286 1.11.573 1.685.86.555.307 1.11.593 1.665.9.555.287 1.13.574 1.685.88.555.287 1.11.594 1.665.881.576.287 1.11.635 1.604 1.003l1.541 1.106c.514.389 1.028.757 1.521 1.126.514.368 1.028.758 1.542 1.126.513.369 1.027.737 1.52 1.106.514.389 1.028.757 1.542 1.126.514.348 1.028.716 1.542 1.085.534.368 1.048.737 1.562 1.105.514.369 1.028.717 1.541 1.086l1.542 1.105c.534.369 1.048.717 1.562 1.085.514.348 1.048.717 1.562 1.065.535.368 1.048.716 1.562 1.065.535.368 1.049.716 1.562 1.085.535.348 1.049.716 1.563 1.064.534.369 1.068.717 1.582 1.065.535.348 1.048.696 1.583 1.044.534.348 1.048.696 1.583 1.044.534.348 1.048.696 1.582 1.044l1.583 1.045c.534.348 1.069.675 1.583 1.023.554.348 1.089.676 1.603 1.004.555.348 1.09.696 1.603 1.023.555.348 1.09.696 1.603 1.024.535.348 1.069.676 1.603 1.003.555.328 1.09.676 1.624.983.555.348 1.09.676 1.624 1.003.555.328 1.09.655 1.603.983.576.348 1.09.676 1.624.983.575.348 1.11.655 1.644.962.576.348 1.11.655 1.624.962.596.348 1.151.655 1.644.942.617.389 1.172.696 1.624.962 1.069.635 1.665.942 1.665.942.555.307 1.09.676 1.603 1.085.555.43 1.07.901 1.562 1.433.494.533.987 1.106 1.44 1.72.451.614.862 1.27 1.253 1.945.39.655.74 1.352 1.048 2.068.288.696.555 1.413.76 2.13.206.716.37 1.433.473 2.129.103.696.165 1.371.165 2.047m213.7-17.915v210.002c0 .655-.06 1.33-.164 2.006a14.477 14.477 0 0 1-.514 2.068 19.195 19.195 0 0 1-.801 2.048c-.329.675-.699 1.33-1.11 1.945a18.896 18.896 0 0 1-1.336 1.76 15.592 15.592 0 0 1-1.521 1.557c-.514.47-1.069.88-1.644 1.248a9.146 9.146 0 0 1-1.706.922l-1.747.737c-.473.205-1.07.45-1.727.757-.514.246-1.09.512-1.727.799-.534.246-1.11.512-1.726.778-.535.266-1.11.532-1.706.798-.555.246-1.13.533-1.727.82-.534.265-1.11.532-1.706.818-.534.287-1.11.553-1.685.84-.555.266-1.13.553-1.706.84-.555.265-1.13.552-1.706.839-.555.286-1.11.573-1.685.86-.555.286-1.11.573-1.686.86-.555.286-1.11.573-1.685.88-.555.266-1.13.573-1.686.86-.555.286-1.13.573-1.685.86-.555.286-1.13.573-1.686.86-.575.286-1.13.573-1.706.86-.555.286-1.11.573-1.685.86-.555.286-1.11.573-1.686.88-.554.266-1.11.553-1.685.86-.555.286-1.13.573-1.685.86-.555.286-1.13.573-1.686.86-.575.286-1.13.573-1.706.86-.555.286-1.11.573-1.685.86-.555.286-1.11.573-1.686.86-.555.286-1.13.572-1.706.839-.555.286-1.13.552-1.706.819-.555.286-1.13.552-1.706.839l-1.706.819c-.555.266-1.13.553-1.706.798l-1.726.799-1.727.778c-.575.246-1.15.512-1.726.778-.576.266-1.151.512-1.747.757l-1.747.717c-.576.246-1.172.491-1.748.737-.596.246-1.171.471-1.747.717-.596.245-1.171.491-1.767.716-.596.205-1.192.43-1.768.655l-1.788.676c-.596.205-1.192.41-1.788.635l-1.789.614c-.596.184-1.192.389-1.808.594-.596.184-1.192.389-1.789.573-.616.184-1.212.369-1.829.553-.596.184-1.213.368-1.809.532l-1.829.492c-.617.163-1.233.348-1.83.49-.616.144-1.233.288-1.85.451-.616.144-1.232.307-1.849.43l-1.85.39c-.616.143-1.233.265-1.85.388-.637.144-1.254.226-1.87.348l-1.87.328c-.617.102-1.254.184-1.871.287-.637.081-1.254.184-1.87.266-.638.102-1.254.164-1.891.245-.638.062-1.254.123-1.891.205-.617.062-1.254.123-1.87.184-.638.041-1.275.103-1.892.144-.637.04-1.274.102-1.89.143-.638.02-1.275.041-1.912.082-.617.02-1.254.04-1.891.082-.637.02-1.254.02-1.891.02s-1.275.02-1.891.02c-.637 0-1.275 0-1.912-.02-.616-.02-1.254-.04-1.89-.04l-1.892-.062-1.89-.123c-.638-.04-1.275-.061-1.892-.102a54.165 54.165 0 0 1-1.89-.164c-.638-.061-1.254-.123-1.892-.184-.637-.062-1.253-.103-1.87-.185-.637-.081-1.274-.163-1.891-.245l-1.891-.246a58.98 58.98 0 0 1-1.87-.287 58.98 58.98 0 0 0-1.87-.286 50.691 50.691 0 0 1-1.871-.328c-.617-.123-1.254-.225-1.85-.348-.637-.123-1.254-.246-1.87-.368a41.798 41.798 0 0 1-1.85-.39c-.638-.143-1.254-.286-1.85-.43-.637-.143-1.254-.266-1.85-.409a33.78 33.78 0 0 1-1.83-.47c-.637-.165-1.253-.308-1.85-.472-.636-.163-1.253-.327-1.829-.47-.657-.185-1.253-.37-1.829-.533-.658-.184-1.254-.368-1.809-.532-.699-.205-1.315-.39-1.808-.533-1.193-.348-1.81-.573-1.81-.573a11.199 11.199 0 0 1-1.767-.757 11.495 11.495 0 0 1-1.685-1.126 12.999 12.999 0 0 1-1.562-1.454 15.609 15.609 0 0 1-1.357-1.72 16.164 16.164 0 0 1-1.11-1.924 17.432 17.432 0 0 1-.822-2.027 11.88 11.88 0 0 1-.493-2.048 11.267 11.267 0 0 1-.185-2.027v-209.98c0-.676.061-1.311.185-1.905a7.412 7.412 0 0 1 .493-1.7 7.463 7.463 0 0 1 .822-1.432c.329-.43.699-.799 1.11-1.126a5.49 5.49 0 0 1 1.357-.758 7.581 7.581 0 0 1 1.562-.389 7.68 7.68 0 0 1 1.685-.02c.576.06 1.151.204 1.768.389 0 0 .616.225 1.788.573.514.164 1.13.327 1.83.532l1.808.532c.576.185 1.172.369 1.83.533l1.829.47c.596.164 1.212.328 1.85.492.575.143 1.192.307 1.829.45.596.144 1.213.287 1.85.43l1.85.41c.596.143 1.212.266 1.85.389l1.87.368c.596.123 1.233.246 1.85.369.616.102 1.233.205 1.87.307l1.87.307c.617.082 1.254.205 1.871.287.637.061 1.254.143 1.891.225l1.87.246c.638.082 1.254.143 1.891.204.617.041 1.254.103 1.891.164.617.062 1.254.123 1.891.164.617.041 1.254.082 1.891.102l1.891.123c.637.041 1.254.041 1.891.062.637.02 1.254.02 1.891.04.637.021 1.275.021 1.912.021.616 0 1.254 0 1.89-.02.638 0 1.255 0 1.892-.02.637-.021 1.254-.062 1.89-.083.638-.02 1.275-.061 1.892-.082a28.29 28.29 0 0 0 1.89-.143c.638-.04 1.275-.102 1.892-.143.637-.041 1.274-.103 1.89-.185.638-.061 1.254-.143 1.892-.204.616-.082 1.253-.144 1.87-.246a59.96 59.96 0 0 0 1.891-.266c.617-.082 1.254-.164 1.87-.287l1.87-.327c.617-.103 1.234-.205 1.85-.328.617-.143 1.255-.266 1.871-.389l1.85-.41c.617-.122 1.233-.286 1.85-.43.616-.143 1.213-.306 1.83-.45.616-.143 1.232-.327 1.85-.491.595-.164 1.212-.328 1.808-.492a47.635 47.635 0 0 0 1.83-.532c.595-.184 1.212-.368 1.808-.553a46.65 46.65 0 0 0 1.809-.573l1.808-.594 1.789-.614c.596-.205 1.192-.43 1.788-.635.596-.204 1.192-.43 1.767-.655l1.789-.675c.575-.226 1.171-.471 1.747-.717l1.767-.717a44.451 44.451 0 0 1 1.748-.716c.575-.246 1.171-.492 1.747-.737.575-.246 1.171-.492 1.747-.758a64.044 64.044 0 0 0 1.726-.778c.576-.266 1.151-.512 1.727-.778a64.044 64.044 0 0 1 1.726-.778 43.644 43.644 0 0 0 1.706-.819l1.706-.819c.576-.266 1.151-.553 1.706-.819.576-.286 1.151-.552 1.706-.84a43.91 43.91 0 0 0 1.706-.839c.576-.286 1.13-.573 1.686-.86.575-.286 1.13-.573 1.685-.86.576-.286 1.13-.573 1.706-.86l1.686-.86c.555-.286 1.13-.572 1.685-.86.576-.286 1.13-.572 1.685-.859.576-.287 1.13-.573 1.686-.86.575-.287 1.13-.573 1.685-.86.576-.307 1.13-.594 1.686-.88.575-.287 1.15-.573 1.706-.86.555-.287 1.13-.573 1.685-.86.555-.287 1.13-.573 1.686-.86.575-.287 1.13-.573 1.685-.86l1.686-.88c.575-.287 1.13-.573 1.685-.86.575-.287 1.151-.573 1.706-.84.575-.286 1.151-.573 1.706-.839.575-.287 1.151-.553 1.685-.819l1.706-.84c.596-.286 1.172-.552 1.727-.818.596-.266 1.171-.533 1.706-.778l1.726-.799a82.398 82.398 0 0 0 1.727-.798c.678-.287 1.254-.553 1.727-.758 1.15-.491 1.747-.737 1.747-.737a8.994 8.994 0 0 1 1.706-.532 7.7 7.7 0 0 1 1.644-.123c.534.02 1.048.123 1.52.287.474.184.926.43 1.337.737a5.05 5.05 0 0 1 1.11 1.085c.308.41.575.88.801 1.412.227.512.391 1.086.514 1.7.103.573.165 1.208.165 1.883" stroke="#1b0000" stroke-width="1.1"/><path d="M109.93 269.337h-2.234V253.54h-6.937v15.797h-2.235v-17.719h11.406ZM125.415 262.04c0 2.418-.515 4.281-1.547 5.594-1.03 1.304-2.496 1.953-4.39 1.953-1.824 0-3.266-.633-4.328-1.906-1.063-1.27-1.618-3.067-1.657-5.391v-3.328c0-2.375.52-4.235 1.563-5.578 1.05-1.344 2.516-2.016 4.39-2.016 1.864 0 3.317.649 4.36 1.938 1.039 1.28 1.578 3.117 1.61 5.5Zm-2.234-3.11c0-1.874-.309-3.265-.922-4.171-.605-.914-1.543-1.375-2.812-1.375-1.22 0-2.149.465-2.782 1.39-.625.93-.945 2.29-.953 4.078v3.188c0 1.805.313 3.184.938 4.14.632.95 1.578 1.422 2.828 1.422 1.25 0 2.172-.437 2.765-1.312.602-.883.914-2.227.938-4.031ZM139.964 263.712c-.094 1.898-.625 3.351-1.594 4.36-.969 1.011-2.34 1.515-4.11 1.515-1.773 0-3.183-.676-4.234-2.031-1.043-1.352-1.562-3.188-1.562-5.5v-3.204c0-2.312.535-4.132 1.609-5.468 1.07-1.344 2.535-2.016 4.39-2.016 1.72 0 3.047.516 3.985 1.547.937 1.031 1.441 2.5 1.516 4.406h-2.25c-.094-1.445-.399-2.476-.907-3.094-.511-.613-1.293-.921-2.343-.921-1.211 0-2.137.476-2.782 1.421-.648.938-.968 2.32-.968 4.141v3.25c0 1.793.3 3.168.906 4.125.601.961 1.484 1.438 2.64 1.438 1.157 0 1.989-.286 2.5-.86.52-.582.836-1.617.954-3.11ZM153.344 253.54h-4.656v15.797h-2.235V253.54h-4.64v-1.922h11.53ZM164.459 261.15h-6.266v6.28h7.297v1.907h-9.531v-17.719h9.406v1.922h-7.172v5.703h6.266ZM170.57 262.4v6.937h-2.234v-17.719h5.657c1.644 0 2.937.496 3.875 1.484.937.981 1.406 2.293 1.406 3.938 0 1.7-.45 3.012-1.344 3.937-.898.918-2.156 1.391-3.781 1.422Zm0-1.907h3.423c.988 0 1.742-.297 2.265-.89.531-.594.797-1.442.797-2.547 0-1.063-.273-1.91-.812-2.547-.543-.645-1.293-.969-2.25-.969h-3.422ZM74.61 303.74v-17.719h5.048c1.613 0 2.828.399 3.64 1.188.82.781 1.235 1.96 1.235 3.531 0 .836-.211 1.57-.625 2.203a4.162 4.162 0 0 1-1.672 1.469c.812.242 1.453.742 1.922 1.5.476.75.718 1.656.718 2.719 0 1.593-.437 2.843-1.312 3.75-.875.906-2.121 1.359-3.734 1.359Zm2.235-8.281v6.375h3.031c.844 0 1.516-.274 2.016-.828.5-.563.75-1.348.75-2.36 0-2.125-.902-3.187-2.703-3.187Zm0-1.875h2.86c.77 0 1.39-.258 1.859-.782.477-.52.719-1.21.719-2.078 0-.968-.219-1.672-.657-2.109-.43-.445-1.085-.672-1.968-.672h-2.813ZM96.148 296.802v6.938h-2.234v-17.719h5.656c1.645 0 2.938.496 3.875 1.485.938.98 1.406 2.293 1.406 3.937 0 1.7-.449 3.012-1.343 3.938-.899.918-2.157 1.39-3.782 1.421Zm0-1.906h3.422c.988 0 1.742-.297 2.266-.89.53-.594.797-1.442.797-2.547 0-1.063-.274-1.91-.813-2.547-.543-.645-1.293-.969-2.25-.969h-3.422ZM119.259 296.443c0 2.418-.516 4.281-1.547 5.594-1.031 1.305-2.496 1.953-4.39 1.953-1.825 0-3.266-.633-4.329-1.906-1.062-1.27-1.617-3.067-1.656-5.39v-3.329c0-2.375.52-4.234 1.563-5.578 1.05-1.344 2.515-2.016 4.39-2.016 1.863 0 3.317.649 4.36 1.938 1.039 1.281 1.578 3.117 1.609 5.5Zm-2.234-3.11c0-1.874-.309-3.265-.922-4.171-.606-.914-1.543-1.375-2.813-1.375-1.219 0-2.148.465-2.781 1.39-.625.93-.945 2.29-.953 4.079v3.187c0 1.805.312 3.184.937 4.14.633.95 1.578 1.423 2.828 1.423 1.25 0 2.172-.438 2.766-1.313.602-.883.914-2.226.938-4.031ZM130.151 290.787c0-.957-.273-1.707-.813-2.25-.543-.55-1.293-.828-2.25-.828-.804 0-1.476.289-2.015.86-.543.562-.813 1.265-.813 2.108h-2.234c0-1.445.484-2.625 1.453-3.53.969-.915 2.172-1.376 3.61-1.376 1.687 0 2.988.45 3.906 1.344.925.898 1.39 2.133 1.39 3.703 0 .824-.215 1.574-.64 2.25-.43.668-1.024 1.195-1.782 1.578 1.758.711 2.641 2.094 2.641 4.156 0 1.606-.508 2.872-1.516 3.797-1.011.93-2.343 1.391-4 1.391-.71 0-1.398-.117-2.062-.344a5.01 5.01 0 0 1-1.734-1.062c-.993-.938-1.485-2.192-1.485-3.766h2.235c0 .93.285 1.703.859 2.328.57.625 1.3.938 2.187.938 1 0 1.797-.29 2.391-.875.602-.594.906-1.38.906-2.36 0-2.062-.992-3.117-2.968-3.172h-1.813v-1.921h1.656c.946 0 1.664-.254 2.157-.766.488-.52.734-1.254.734-2.203ZM137.833 296.802v6.938H135.6v-17.719h5.656c1.645 0 2.938.496 3.875 1.485.938.98 1.406 2.293 1.406 3.937 0 1.7-.449 3.012-1.343 3.938-.899.918-2.157 1.39-3.782 1.421Zm0-1.906h3.422c.988 0 1.742-.297 2.266-.89.531-.594.797-1.442.797-2.547 0-1.063-.274-1.91-.813-2.547-.543-.645-1.293-.969-2.25-.969h-3.422ZM160.944 296.443c0 2.418-.516 4.281-1.547 5.594-1.031 1.305-2.496 1.953-4.39 1.953-1.825 0-3.266-.633-4.329-1.906-1.062-1.27-1.617-3.067-1.656-5.39v-3.329c0-2.375.52-4.234 1.563-5.578 1.05-1.344 2.515-2.016 4.39-2.016 1.864 0 3.317.649 4.36 1.938 1.039 1.281 1.578 3.117 1.61 5.5Zm-2.234-3.11c0-1.874-.309-3.265-.922-4.171-.606-.914-1.543-1.375-2.813-1.375-1.218 0-2.148.465-2.78 1.39-.626.93-.946 2.29-.954 4.079v3.187c0 1.805.312 3.184.937 4.14.633.95 1.579 1.423 2.829 1.423 1.25 0 2.171-.438 2.765-1.313.602-.883.914-2.226.938-4.031ZM173.524 287.943h-6.97v5.313h3.579c1.594 0 2.836.464 3.734 1.39.895.918 1.344 2.184 1.344 3.797 0 1.625-.46 2.918-1.375 3.875-.906.95-2.168 1.422-3.781 1.422h-5.735v-17.719h9.204Zm-6.97 7.234v6.657h3.548c.914 0 1.625-.313 2.125-.938s.75-1.445.75-2.469c0-1.007-.25-1.8-.75-2.375-.5-.582-1.203-.875-2.11-.875ZM178.197 286.021h2.25v15.813h6.922V286.02h2.218v15.766h1.61l-.22 6.219h-2v-4.266h-10.78ZM196.347 303.74h-2.219v-17.719h2.22ZM96.946 178.665v6.938h-2.234v-17.72h5.656c1.644 0 2.937.497 3.875 1.485.937.98 1.406 2.293 1.406 3.938 0 1.699-.45 3.012-1.344 3.937-.898.918-2.156 1.39-3.78 1.422Zm0-1.906h3.422c.988 0 1.742-.297 2.265-.89.532-.594.797-1.442.797-2.548 0-1.062-.273-1.91-.812-2.546-.543-.645-1.293-.97-2.25-.97h-3.422ZM120.057 178.306c0 2.418-.516 4.281-1.547 5.594-1.031 1.304-2.496 1.953-4.39 1.953-1.825 0-3.266-.633-4.329-1.907-1.062-1.27-1.617-3.066-1.656-5.39v-3.328c0-2.375.52-4.235 1.562-5.578 1.051-1.344 2.516-2.016 4.391-2.016 1.863 0 3.316.648 4.36 1.937 1.038 1.282 1.578 3.118 1.609 5.5Zm-2.235-3.11c0-1.875-.308-3.265-.921-4.171-.606-.915-1.543-1.375-2.813-1.375-1.219 0-2.148.464-2.781 1.39-.625.93-.946 2.29-.953 4.078v3.188c0 1.804.312 3.183.937 4.14.633.95 1.578 1.422 2.828 1.422 1.25 0 2.172-.437 2.766-1.312.601-.883.914-2.227.937-4.031ZM131.246 181.118c0-.875-.243-1.547-.72-2.015-.48-.477-1.343-.942-2.593-1.39-1.25-.446-2.21-.915-2.875-1.407-.656-.488-1.152-1.047-1.484-1.672-.324-.625-.485-1.344-.485-2.156 0-1.407.47-2.563 1.407-3.47.937-.913 2.16-1.374 3.672-1.374 1.039 0 1.968.234 2.78.703a4.778 4.778 0 0 1 1.876 1.953c.437.824.656 1.73.656 2.719h-2.234c0-1.094-.266-1.938-.797-2.531-.531-.602-1.293-.907-2.281-.907-.899 0-1.594.25-2.094.75-.492.5-.735 1.204-.735 2.11 0 .75.266 1.383.797 1.89.54.5 1.367.95 2.485 1.344 1.75.574 3 1.281 3.75 2.125.75.844 1.125 1.95 1.125 3.313 0 1.437-.47 2.59-1.407 3.453-.93.867-2.199 1.297-3.812 1.297a6.216 6.216 0 0 1-2.86-.672 5.205 5.205 0 0 1-2.046-1.906c-.5-.813-.75-1.75-.75-2.813h2.234c0 1.094.305 1.95.922 2.563.613.605 1.445.906 2.5.906.988 0 1.726-.25 2.219-.75.5-.5.75-1.188.75-2.063ZM146.768 169.806h-4.656v15.797h-2.234v-15.797h-4.641v-1.922h11.531ZM157.883 177.415h-6.266v6.281h7.297v1.907h-9.531v-17.72h9.406v1.923h-7.172v5.703h6.266ZM167.12 178.43h-3.11v7.173h-2.25v-17.72h4.97c1.738 0 3.05.454 3.937 1.36.895.907 1.344 2.23 1.344 3.97 0 1.093-.246 2.054-.735 2.874a4.58 4.58 0 0 1-2.046 1.844l3.437 7.531v.14h-2.39Zm-3.11-1.905h2.688c.938 0 1.68-.297 2.235-.891.562-.602.843-1.41.843-2.422 0-2.27-1.03-3.406-3.093-3.406h-2.672ZM66.551 220.006h-2.218v-17.719h2.218ZM82.033 220.006h-2.234l-7.094-13.656v13.656h-2.25v-17.719h2.25l7.11 13.719v-13.719h2.218ZM93.83 213.068v6.938h-2.234v-17.719h5.656c1.644 0 2.937.496 3.875 1.484.937.98 1.406 2.293 1.406 3.938 0 1.7-.45 3.012-1.344 3.937-.898.918-2.156 1.391-3.781 1.422Zm0-1.906h3.422c.988 0 1.742-.297 2.265-.89.532-.594.797-1.442.797-2.547 0-1.063-.273-1.91-.812-2.547-.543-.645-1.293-.97-2.25-.97H93.83ZM110.769 212.834h-3.11v7.172h-2.25v-17.719h4.97c1.737 0 3.05.453 3.937 1.36.894.906 1.343 2.23 1.343 3.968 0 1.094-.246 2.055-.734 2.875a4.58 4.58 0 0 1-2.047 1.844l3.438 7.531v.14h-2.391Zm-3.11-1.906h2.688c.937 0 1.68-.297 2.234-.891.563-.602.844-1.41.844-2.422 0-2.27-1.031-3.406-3.094-3.406h-2.672ZM130.17 212.709c0 2.418-.515 4.281-1.547 5.594-1.03 1.304-2.496 1.953-4.39 1.953-1.824 0-3.266-.633-4.328-1.906-1.063-1.27-1.617-3.067-1.657-5.391v-3.328c0-2.375.52-4.235 1.563-5.578 1.05-1.344 2.516-2.016 4.39-2.016 1.864 0 3.317.648 4.36 1.938 1.04 1.28 1.578 3.117 1.61 5.5Zm-2.234-3.11c0-1.874-.309-3.265-.922-4.171-.605-.914-1.543-1.375-2.812-1.375-1.22 0-2.149.464-2.782 1.39-.625.93-.945 2.29-.953 4.078v3.188c0 1.805.313 3.183.938 4.14.633.95 1.578 1.422 2.828 1.422 1.25 0 2.172-.437 2.765-1.312.602-.883.915-2.227.938-4.031ZM144.703 217.803l-.39.484c-1.126 1.313-2.766 1.969-4.922 1.969-1.918 0-3.422-.633-4.516-1.906-1.086-1.27-1.637-3.067-1.656-5.391v-3.484c0-2.477.492-4.336 1.484-5.579.988-1.238 2.473-1.859 4.453-1.859 1.688 0 3.004.477 3.953 1.422.957.937 1.489 2.281 1.594 4.031h-2.234c-.086-1.101-.391-1.96-.922-2.578-.524-.625-1.313-.937-2.375-.937-1.274 0-2.203.417-2.797 1.25-.594.824-.902 2.148-.922 3.968v3.625c0 1.782.336 3.153 1.016 4.11.687.949 1.664 1.422 2.937 1.422 1.195 0 2.11-.29 2.735-.875l.328-.297v-4.094h-3.235v-1.906h5.469ZM153.695 212.834h-3.109v7.172h-2.25v-17.719h4.969c1.738 0 3.05.453 3.937 1.36.895.906 1.344 2.23 1.344 3.968 0 1.094-.246 2.055-.734 2.875a4.58 4.58 0 0 1-2.047 1.844l3.437 7.531v.14h-2.39Zm-3.109-1.906h2.687c.938 0 1.68-.297 2.235-.891.562-.602.844-1.41.844-2.422 0-2.27-1.032-3.406-3.094-3.406h-2.672ZM170.066 211.818H163.8v6.282h7.297v1.906h-9.531v-17.719h9.406v1.922H163.8v5.703h6.266ZM181.693 215.521c0-.875-.242-1.546-.718-2.015-.48-.477-1.344-.942-2.594-1.39-1.25-.446-2.211-.915-2.875-1.407-.656-.488-1.152-1.047-1.484-1.672-.325-.625-.485-1.344-.485-2.156 0-1.406.469-2.563 1.406-3.469.938-.914 2.16-1.375 3.672-1.375 1.04 0 1.969.234 2.782.703a4.778 4.778 0 0 1 1.875 1.953c.437.824.656 1.73.656 2.719h-2.235c0-1.094-.265-1.937-.796-2.531-.532-.602-1.293-.906-2.282-.906-.898 0-1.593.25-2.093.75-.493.5-.735 1.203-.735 2.109 0 .75.266 1.383.797 1.89.54.5 1.367.95 2.484 1.344 1.75.574 3 1.282 3.75 2.125.75.844 1.125 1.95 1.125 3.313 0 1.437-.468 2.59-1.406 3.453-.93.867-2.199 1.297-3.812 1.297a6.216 6.216 0 0 1-2.86-.672 5.205 5.205 0 0 1-2.047-1.906c-.5-.813-.75-1.75-.75-2.813h2.235c0 1.094.304 1.95.922 2.563.613.605 1.445.906 2.5.906.988 0 1.726-.25 2.218-.75.5-.5.75-1.188.75-2.063ZM194.607 215.521c0-.875-.242-1.546-.72-2.015-.48-.477-1.343-.942-2.593-1.39-1.25-.446-2.21-.915-2.875-1.407-.656-.488-1.152-1.047-1.484-1.672-.324-.625-.485-1.344-.485-2.156 0-1.406.47-2.563 1.407-3.469.937-.914 2.16-1.375 3.672-1.375 1.039 0 1.968.234 2.78.703a4.778 4.778 0 0 1 1.876 1.953c.437.824.656 1.73.656 2.719h-2.234c0-1.094-.266-1.937-.797-2.531-.531-.602-1.293-.906-2.281-.906-.899 0-1.594.25-2.094.75-.492.5-.735 1.203-.735 2.109 0 .75.266 1.383.797 1.89.54.5 1.368.95 2.485 1.344 1.75.574 3 1.282 3.75 2.125.75.844 1.125 1.95 1.125 3.313 0 1.437-.47 2.59-1.407 3.453-.93.867-2.199 1.297-3.812 1.297a6.216 6.216 0 0 1-2.86-.672 5.205 5.205 0 0 1-2.046-1.906c-.5-.813-.75-1.75-.75-2.813h2.234c0 1.094.305 1.95.922 2.563.613.605 1.445.906 2.5.906.988 0 1.727-.25 2.219-.75.5-.5.75-1.188.75-2.063Zm0 0"/></svg>