<svg id="svg" version="1.1" xmlns="http://www.w3.org/2000/svg" xmlns:xlink="http://www.w3.org/1999/xlink" width="400" height="400" viewBox="0, 0, 400,400"><g id="svgg"><path id="path0" d="M90.411 91.938 C 87.075 93.728,87.413 85.362,87.297 168.839 C 87.180 252.405,86.887 244.745,90.288 246.860 L 91.800 247.800 117.000 247.800 L 142.200 247.800 151.200 244.130 C 162.784 239.406,172.114 235.259,172.491 234.666 C 172.654 234.410,172.791 232.523,172.794 230.474 L 172.800 226.748 170.738 223.374 C 169.604 221.518,168.659 219.958,168.638 219.906 C 168.617 219.854,153.120 219.719,134.200 219.606 L 99.800 219.400 99.690 164.000 C 99.630 133.530,99.679 108.195,99.798 107.700 L 100.015 106.800 199.765 106.800 C 290.354 106.800,299.537 106.858,299.757 107.433 C 300.075 108.260,300.075 218.140,299.757 218.967 C 299.538 219.537,296.191 219.600,265.990 219.600 C 228.272 219.600,231.628 219.345,229.936 222.340 C 229.234 223.583,228.332 225.029,227.930 225.554 C 227.167 226.552,226.840 233.615,227.509 234.666 C 227.887 235.261,237.258 239.427,248.800 244.132 L 257.800 247.800 283.000 247.800 C 311.653 247.800,309.966 247.999,312.000 244.380 L 313.000 242.600 313.000 169.200 C 313.000 86.943,313.267 94.475,310.271 92.242 L 309.141 91.400 200.468 91.298 C 95.246 91.199,91.752 91.219,90.411 91.938 M117.802 130.798 L 116.242 132.396 120.521 136.738 C 122.874 139.126,124.800 141.217,124.800 141.384 C 124.800 141.551,122.879 143.660,120.531 146.070 L 116.263 150.452 118.132 152.321 L 120.000 154.190 126.200 148.000 C 129.610 144.595,132.400 141.625,132.400 141.400 C 132.400 140.738,120.650 129.200,119.976 129.200 C 119.639 129.200,118.660 129.919,117.802 130.798 M140.267 136.267 C 139.677 136.856,139.983 141.108,140.633 141.357 C 141.882 141.837,155.413 141.627,155.920 141.120 C 156.422 140.618,156.575 137.722,156.157 136.633 C 155.904 135.974,140.905 135.629,140.267 136.267 M196.200 142.063 C 184.697 143.349,175.426 149.414,170.843 158.649 C 168.084 164.211,167.735 169.795,169.401 181.710 C 169.597 183.106,169.506 183.282,168.189 184.059 C 165.914 185.402,164.413 189.535,164.403 194.485 C 164.395 198.249,167.924 203.685,170.741 204.248 C 172.138 204.528,172.800 205.390,172.800 206.929 C 172.800 210.216,176.070 218.446,178.788 222.000 L 180.471 224.200 180.200 231.600 C 179.873 240.534,180.699 239.406,171.400 243.620 C 158.122 249.637,154.681 250.844,146.305 252.423 C 127.948 255.881,114.324 261.055,106.489 267.544 C 103.148 270.311,102.400 273.098,102.400 282.777 C 102.400 290.654,104.065 307.687,104.980 309.167 C 105.396 309.841,294.161 309.775,294.706 309.100 C 294.928 308.825,295.405 306.530,295.766 304.000 C 298.153 287.244,298.289 274.907,296.134 270.686 C 293.753 266.024,277.285 258.904,259.444 254.824 C 250.016 252.669,242.907 250.080,228.400 243.522 C 219.275 239.396,220.088 240.560,219.931 231.400 L 219.800 223.800 221.326 221.835 C 224.007 218.384,225.820 214.033,226.993 208.234 C 227.765 204.421,227.777 204.400,229.097 204.400 C 234.737 204.400,237.916 188.396,232.968 184.909 C 230.223 182.974,230.378 183.471,231.006 178.600 C 233.182 161.735,228.589 151.934,215.400 145.299 C 211.579 143.377,202.646 141.289,199.800 141.653 C 199.580 141.682,197.960 141.866,196.200 142.063 " stroke="none" fill="#969696" fill-rule="evenodd"></path></g></svg>